<?xml version="1.0" standalone="no"?>
<!DOCTYPE svg PUBLIC "-//W3C//DTD SVG 20010904//EN"
 "http://www.w3.org/TR/2001/REC-SVG-20010904/DTD/svg10.dtd">
<svg version="1.0" xmlns="http://www.w3.org/2000/svg"
 width="1350.000000pt" height="759.000000pt" viewBox="0 0 1350.000000 759.000000"
 preserveAspectRatio="xMidYMid meet">
<metadata>
Created by potrace 1.10, written by Peter Selinger 2001-2011
</metadata>
<g transform="translate(0.000000,759.000000) scale(0.100000,-0.100000)"
fill="#f50000" stroke="none">
<path d="M4285 6951 c-33 -10 -72 -22 -86 -28 -66 -29 -197 -118 -311 -211
-35 -29 -157 -173 -195 -231 -21 -31 -67 -114 -104 -185 -42 -83 -74 -133 -90
-141 -13 -8 -63 -37 -112 -65 -48 -28 -95 -50 -105 -48 -15 3 -18 20 -22 128
-6 137 -20 188 -76 275 -64 100 -163 172 -289 210 -110 33 -349 21 -491 -25
-385 -123 -674 -303 -920 -571 -62 -68 -137 -167 -181 -239 -75 -123 -153
-312 -173 -419 -5 -25 -14 -66 -19 -91 -12 -55 -13 -268 -1 -330 12 -63 29
-131 38 -155 32 -80 95 -185 144 -240 32 -36 58 -75 58 -85 0 -11 -10 -41 -21
-67 -33 -74 -37 -83 -53 -151 -29 -117 -13 -230 46 -341 38 -71 54 -88 101
-112 34 -18 39 -18 67 -4 43 22 40 55 -13 113 -60 65 -73 89 -87 157 -21 100
10 270 58 317 17 17 20 17 82 -13 118 -58 178 -75 328 -93 102 -11 143 -11
273 0 85 8 164 18 177 24 13 5 33 10 46 10 13 0 48 7 77 16 130 38 186 57 219
70 19 9 44 19 55 24 137 58 351 179 454 255 25 19 60 45 76 57 64 47 223 216
268 284 50 77 137 238 137 256 0 5 6 24 14 41 42 95 93 296 141 552 8 44 21
109 29 145 8 36 20 90 27 120 13 60 34 90 89 123 19 11 37 23 40 27 3 3 23 18
46 33 22 15 49 35 60 45 10 9 48 40 84 69 98 77 243 231 279 294 40 71 43 144
9 176 -23 20 -81 44 -102 42 -6 -1 -38 -9 -71 -18z m75 -129 c0 -39 -199 -245
-344 -356 -47 -35 -66 -39 -66 -11 0 30 93 165 160 233 117 118 250 190 250
134z m-1498 -278 c128 -33 233 -128 273 -249 19 -55 25 -216 11 -298 -7 -43
-12 -51 -54 -77 -26 -17 -53 -29 -61 -27 -9 1 -20 31 -31 83 -9 44 -26 95 -38
112 -37 52 -101 100 -156 117 -83 26 -263 14 -361 -25 -106 -41 -245 -116
-305 -165 -60 -48 -221 -215 -256 -265 -45 -65 -124 -218 -124 -240 0 -9 -4
-20 -9 -25 -5 -6 -17 -56 -27 -112 -15 -96 -15 -107 1 -190 10 -48 24 -97 32
-110 8 -12 13 -31 11 -42 -2 -11 -41 -60 -89 -108 -47 -48 -103 -110 -125
-138 -21 -27 -47 -59 -56 -70 -10 -11 -24 -29 -32 -40 -32 -43 -80 30 -111
169 -27 125 -13 357 32 501 62 202 166 389 339 610 70 90 234 255 309 311 28
21 52 41 55 44 11 14 149 100 205 128 87 45 152 72 169 72 8 0 17 4 20 9 4 5
30 12 59 16 28 4 61 11 72 16 35 14 181 10 247 -7z m-76 -450 c75 -31 114 -90
114 -173 0 -27 4 -61 10 -75 8 -23 5 -28 -43 -59 -29 -18 -92 -58 -142 -87
-49 -29 -108 -66 -130 -80 -22 -15 -114 -76 -205 -136 -147 -96 -366 -253
-402 -287 -7 -7 -25 -20 -41 -30 -27 -17 -27 -17 -37 8 -11 30 -5 98 17 175
86 310 388 646 668 744 55 19 145 19 191 0z m654 -138 c0 -12 -4 -26 -8 -31
-5 -6 -24 -50 -42 -100 -29 -80 -50 -134 -80 -200 -5 -11 -21 -47 -35 -80 -93
-210 -215 -421 -308 -532 -91 -109 -163 -186 -208 -224 -30 -24 -63 -52 -74
-62 -99 -91 -276 -198 -420 -257 -117 -48 -286 -68 -423 -52 -135 17 -260 66
-302 120 l-19 24 62 81 c34 45 105 127 158 181 l96 99 98 -48 99 -49 110 -1
c79 0 128 5 171 18 280 85 596 368 770 692 12 23 27 50 33 60 6 11 21 43 32
70 12 28 25 59 30 70 4 11 18 47 30 81 20 57 25 63 87 100 132 78 143 81 143
40z m-375 -213 c-20 -80 -119 -253 -228 -398 -46 -60 -217 -225 -283 -271
-146 -103 -248 -139 -391 -139 -97 0 -103 1 -145 30 -59 42 -62 72 -11 110 21
16 40 32 43 36 5 7 234 178 276 207 11 6 55 35 99 64 44 28 105 68 135 88 30
20 84 54 120 75 36 21 67 42 70 45 7 8 271 166 290 173 28 10 32 7 25 -20z"/>
<path d="M4960 6462 c-60 -14 -259 -20 -358 -10 -32 3 -35 0 -66 -58 -18 -34
-56 -100 -84 -147 -29 -46 -52 -87 -52 -90 0 -3 -40 -73 -90 -155 -49 -83 -90
-152 -90 -155 0 -4 -31 -58 -70 -122 -38 -64 -70 -118 -70 -122 0 -3 -29 -54
-65 -113 -36 -59 -65 -110 -65 -114 0 -3 -25 -46 -55 -96 -30 -50 -55 -93 -55
-96 0 -4 -22 -43 -49 -88 -26 -44 -70 -121 -96 -171 -26 -49 -51 -94 -55 -100
-7 -9 -28 -46 -108 -195 -19 -36 -38 -69 -42 -75 -4 -5 -24 -39 -43 -75 -19
-36 -43 -79 -53 -97 -10 -17 -15 -35 -11 -39 4 -4 58 -1 120 6 104 12 202 10
282 -6 28 -5 32 -2 49 38 106 240 219 434 373 640 68 90 185 217 259 279 72
61 152 77 146 30 -1 -13 -60 -110 -130 -215 -120 -180 -167 -258 -193 -316 -6
-14 -15 -33 -20 -42 -15 -29 -10 -156 7 -209 35 -105 149 -193 267 -205 75 -7
167 20 237 71 47 35 184 173 212 214 23 33 42 22 64 -36 10 -26 31 -70 47 -96
32 -52 118 -127 146 -127 9 0 23 -6 30 -12 8 -9 39 -13 91 -12 67 2 88 7 146
35 61 30 158 113 212 183 19 23 48 5 56 -36 9 -48 76 -121 142 -154 47 -24 70
-29 129 -29 40 0 85 6 101 14 94 44 123 62 184 118 37 35 85 85 106 113 41 54
84 69 84 29 0 -35 46 -123 86 -166 22 -23 65 -55 96 -71 72 -39 189 -48 251
-19 37 18 67 17 67 -1 0 -21 -44 -45 -107 -59 -152 -32 -201 -42 -258 -56
-294 -71 -460 -133 -635 -236 -103 -61 -143 -92 -231 -180 -115 -116 -178
-225 -203 -356 -13 -70 -13 -89 0 -155 7 -41 21 -89 29 -106 26 -56 103 -132
163 -161 140 -69 388 -11 687 160 122 69 238 159 364 281 131 129 229 247 331
401 40 61 85 129 100 151 15 23 31 51 35 63 3 11 10 21 15 21 4 0 13 12 19 28
6 15 28 56 49 92 39 66 57 80 159 124 62 27 198 106 240 141 7 5 18 15 25 20
7 6 34 27 60 48 55 44 66 46 74 10 24 -111 75 -177 169 -223 56 -27 73 -31
123 -27 112 8 236 79 346 199 72 77 88 79 101 15 15 -68 114 -187 157 -187 8
0 19 -5 25 -11 6 -6 42 -14 80 -16 61 -5 77 -2 147 27 64 27 93 48 164 115
108 102 267 304 407 515 35 52 76 111 92 130 78 94 166 191 183 200 24 13 57
13 65 0 8 -13 -63 -160 -141 -291 -35 -59 -64 -111 -64 -117 0 -6 -4 -12 -8
-14 -11 -5 -344 -560 -338 -565 2 -2 74 1 159 8 124 10 169 10 223 0 37 -6 70
-8 75 -4 4 4 18 28 31 53 14 25 42 77 63 115 21 39 42 77 46 85 18 34 143 245
148 250 3 3 21 28 40 55 105 154 115 167 240 297 104 109 178 161 224 156 48
-5 45 -32 -15 -123 -28 -44 -95 -145 -147 -225 -53 -80 -104 -161 -113 -180
-76 -154 -63 -283 41 -392 31 -32 60 -58 66 -58 5 0 24 -8 40 -17 21 -12 54
-16 111 -16 122 0 187 35 329 178 61 60 121 124 133 140 172 230 244 339 240
366 -5 32 -31 46 -62 31 -22 -10 -123 -137 -178 -223 -9 -14 -23 -32 -30 -40
-7 -8 -38 -46 -69 -85 -124 -154 -249 -254 -319 -254 -34 0 -47 28 -29 62 6
13 67 106 134 208 152 230 181 283 195 358 13 72 1 166 -30 229 -41 86 -152
153 -252 153 -103 0 -238 -76 -360 -202 -31 -32 -61 -58 -67 -58 -6 0 -13 12
-17 28 -28 131 -141 232 -260 232 -86 0 -141 -27 -229 -115 -45 -44 -91 -93
-104 -110 -48 -67 -149 -208 -191 -270 -117 -172 -199 -274 -305 -380 -78 -78
-101 -96 -151 -118 -82 -37 -104 -4 -56 84 89 164 298 518 478 807 l64 104
-48 -7 c-98 -13 -327 -17 -365 -5 -36 10 -40 9 -61 -13 -13 -14 -26 -33 -30
-43 -4 -12 -10 -14 -17 -7 -7 7 3 37 29 94 22 46 42 103 46 127 3 23 13 62 21
85 22 62 19 130 -5 152 -41 37 -79 2 -213 -199 -95 -143 -133 -183 -184 -195
-52 -13 -293 -14 -326 -2 -17 7 -30 6 -40 -2 -13 -10 -117 -189 -117 -201 0
-3 -17 -31 -39 -63 -21 -32 -71 -116 -111 -187 -61 -107 -91 -147 -174 -234
-101 -105 -204 -190 -304 -250 -44 -27 -54 -30 -58 -17 -7 16 30 92 99 204 21
35 43 74 48 85 4 12 22 44 39 71 16 28 33 57 36 65 4 8 64 109 133 223 69 115
132 221 140 235 8 15 20 33 28 40 7 7 13 20 13 29 0 13 -7 14 -47 7 -27 -5
-126 -9 -221 -9 -149 0 -173 -2 -177 -16 -3 -9 -16 -26 -28 -37 l-23 -22 -34
35 c-19 19 -42 35 -51 35 -10 0 -21 5 -24 10 -14 23 -229 0 -287 -31 -10 -5
-23 -9 -28 -9 -29 0 -202 -87 -291 -146 -83 -56 -198 -161 -243 -223 -20 -27
-52 -82 -72 -122 -20 -41 -39 -76 -43 -79 -4 -3 -31 -36 -60 -75 -29 -38 -99
-115 -155 -171 -130 -130 -219 -175 -246 -124 -8 15 -2 33 35 93 25 41 45 80
45 86 0 6 4 11 9 11 5 0 13 9 16 21 4 11 108 189 232 396 124 206 222 377 219
380 -3 4 -36 1 -73 -6 -72 -14 -314 -11 -345 3 -13 6 -22 -2 -40 -33 -27 -47
-36 -50 -75 -17 -84 70 -184 74 -383 14 -90 -27 -215 -90 -300 -152 -84 -60
-232 -215 -275 -287 -40 -66 -123 -190 -134 -199 -3 -3 -31 -36 -62 -75 -85
-107 -165 -182 -234 -220 -121 -68 -153 -38 -81 78 25 39 69 110 97 157 29 47
76 121 105 165 94 146 113 211 94 328 -17 110 -82 189 -185 228 -80 30 -172
21 -264 -28 -32 -16 -51 -17 -51 -1 0 22 185 327 333 548 38 57 83 129 99 160
26 46 123 210 191 320 22 35 21 35 -73 12z m3760 -1063 c0 -9 -7 -22 -15 -29
-8 -7 -15 -16 -15 -21 0 -5 -34 -65 -75 -134 -41 -70 -75 -128 -75 -130 0 -2
-12 -21 -26 -42 -14 -21 -30 -47 -35 -58 -5 -11 -18 -33 -29 -50 -11 -16 -23
-37 -27 -45 -4 -8 -18 -31 -31 -50 -13 -19 -28 -44 -33 -55 -5 -11 -18 -33
-28 -50 -31 -48 -89 -166 -105 -215 -14 -40 -14 -47 0 -67 15 -24 31 -27 97
-24 52 4 46 -14 -12 -33 -150 -49 -281 30 -322 191 -24 97 14 200 168 456 46
76 83 141 83 144 0 4 6 14 14 22 12 14 61 100 103 182 l13 26 175 -1 c156 0
175 -2 175 -17z m740 11 c0 -5 -28 -54 -62 -109 -35 -56 -68 -109 -73 -119 -6
-9 -23 -36 -38 -60 -15 -23 -37 -59 -48 -80 -11 -20 -29 -50 -39 -67 -10 -16
-31 -52 -45 -80 -15 -27 -38 -64 -51 -82 -13 -17 -24 -35 -24 -39 0 -3 -15
-32 -34 -63 -55 -93 -116 -213 -116 -231 0 -55 91 -70 170 -30 52 27 224 196
293 287 26 34 53 68 60 75 7 7 16 20 19 28 13 30 99 131 108 125 9 -6 -58
-115 -71 -115 -5 0 -9 -5 -9 -11 0 -12 -51 -81 -82 -112 -10 -10 -29 -35 -42
-55 -37 -58 -198 -220 -236 -237 -19 -8 -42 -19 -50 -24 -96 -55 -240 -31
-313 53 -45 52 -60 99 -62 185 -1 56 -5 86 -13 89 -7 2 -12 -2 -12 -10 0 -7
-8 -21 -17 -29 -10 -9 -38 -40 -63 -69 -62 -73 -132 -140 -147 -140 -7 0 -13
-4 -13 -9 0 -9 -61 -51 -74 -51 -15 0 -4 19 14 25 47 15 204 173 286 288 13
17 28 37 34 44 14 17 155 228 164 244 3 8 15 28 26 44 11 17 23 37 27 45 4 8
24 40 45 72 21 32 43 68 49 80 11 25 21 42 60 103 l26 40 177 2 c97 0 176 -3
176 -7z m-3452 -62 c38 -38 -7 -166 -137 -383 -51 -86 -79 -131 -155 -247 -52
-80 -160 -192 -216 -227 -52 -32 -107 -40 -128 -19 -14 14 -16 114 -2 123 6 3
10 13 10 21 0 15 31 91 52 129 6 10 21 37 32 60 27 49 147 232 172 262 11 12
38 46 62 76 57 73 157 162 227 204 26 16 68 16 83 1z m1483 -9 c12 -23 6 -95
-10 -126 -5 -10 -26 -54 -47 -98 -64 -135 -187 -332 -290 -465 -86 -111 -187
-190 -246 -190 -37 0 -68 25 -68 54 1 50 84 247 153 360 57 94 199 277 271
350 123 123 210 165 237 115z m994 -518 c7 -35 51 -77 88 -86 15 -4 27 -13 27
-20 0 -14 -141 -162 -190 -200 -36 -29 -105 -58 -126 -53 -11 2 -20 13 -22 26
-4 24 48 136 115 248 24 39 43 76 43 82 0 12 42 41 52 36 3 -2 9 -17 13 -33z
m-1568 -637 c3 -9 2 -24 -4 -33 -5 -9 -18 -32 -28 -51 -34 -61 -118 -205 -124
-210 -4 -3 -24 -34 -45 -70 -34 -56 -174 -265 -198 -295 -182 -230 -286 -323
-420 -376 -63 -25 -191 -31 -229 -11 -52 28 -64 59 -64 162 0 103 14 153 69
245 128 215 367 398 711 545 11 5 36 15 55 24 19 8 67 24 105 37 39 12 88 28
110 35 52 17 55 17 62 -2z"/>
<path d="M9125 4256 c-12 -18 -16 -53 -16 -147 -1 -68 -6 -134 -12 -146 -7
-16 -7 -34 1 -60 6 -21 14 -48 17 -60 3 -11 11 -23 18 -26 9 -3 11 32 9 149
-3 114 0 171 12 223 9 39 16 75 16 80 0 20 -29 11 -45 -13z"/>
<path d="M7560 4230 c0 -5 -6 -10 -14 -10 -17 0 -56 -59 -56 -85 0 -39 34 -86
88 -121 111 -72 147 -125 110 -162 -15 -15 -3 -16 23 -2 14 8 19 21 19 53 0
52 -2 55 -70 102 -101 70 -109 78 -115 107 -9 39 3 85 28 108 18 17 18 20 4
20 -9 0 -17 -4 -17 -10z"/>
<path d="M7677 4218 c4 -13 7 -45 6 -73 l-2 -50 19 24 c25 29 25 54 3 92 -20
34 -38 39 -26 7z"/>
<path d="M12973 4160 c-35 -8 -50 -17 -101 -64 -50 -46 -67 -90 -67 -171 1
-100 36 -161 130 -221 40 -25 164 -27 216 -2 37 18 98 78 119 118 7 13 12 59
12 104 1 97 -19 142 -88 195 -62 47 -137 61 -221 41z"/>
<path d="M8366 4093 c-10 -10 -7 -431 3 -438 18 -10 21 13 22 134 1 69 7 140
14 164 10 32 11 56 3 90 -9 42 -28 64 -42 50z"/>
<path d="M7844 4079 c-35 -17 -55 -65 -61 -142 -7 -105 20 -157 58 -111 11 14
11 18 -4 29 -13 9 -17 27 -17 78 0 66 18 117 50 144 18 15 3 16 -26 2z"/>
<path d="M8685 4076 c-15 -11 -17 -17 -8 -27 6 -8 13 -25 15 -39 5 -41 23 -28
26 19 4 52 -7 66 -33 47z"/>
<path d="M8808 4069 c-16 -11 -28 -28 -28 -38 0 -9 -5 -22 -11 -28 -17 -17
-22 -134 -7 -163 16 -29 46 -33 62 -8 9 14 6 21 -12 33 -13 10 -22 27 -22 41
0 46 22 119 47 152 28 37 13 43 -29 11z"/>
<path d="M9044 4079 c-33 -16 -54 -63 -60 -131 -7 -76 5 -132 30 -136 19 -4
36 13 36 36 0 6 -7 12 -15 12 -12 0 -15 14 -15 62 0 72 25 142 55 157 13 6 15
10 5 10 -8 0 -24 -5 -36 -10z"/>
<path d="M9258 4067 c-52 -42 -78 -185 -42 -235 18 -26 30 -28 50 -8 19 20 18
33 -6 39 -16 4 -20 13 -20 49 0 57 20 121 48 152 27 32 7 34 -30 3z"/>
<path d="M9678 4067 c-71 -59 -74 -281 -4 -254 27 11 31 37 7 53 -36 26 -22
128 25 192 29 38 13 43 -28 9z"/>
<path d="M10165 3878 c0 -181 2 -213 15 -216 13 -2 15 15 14 110 -1 73 3 126
12 152 14 40 19 122 8 150 -3 9 -16 16 -28 16 -21 0 -21 -2 -21 -212z"/>
<path d="M10424 4072 c-41 -33 -55 -76 -52 -164 2 -64 7 -83 20 -92 14 -8 22
-6 40 11 l22 22 -27 10 c-24 9 -27 16 -27 58 0 49 28 123 57 155 22 24 -4 24
-33 0z"/>
<path d="M10826 4054 c-30 -31 -35 -43 -40 -102 -8 -85 3 -136 29 -140 12 -1
25 6 33 18 12 19 11 22 -7 27 -18 5 -21 13 -21 67 0 48 6 72 29 114 34 61 26
67 -23 16z"/>
<path d="M11363 3878 c2 -180 4 -213 17 -216 13 -2 15 15 13 115 -2 84 2 129
12 156 28 72 15 157 -25 157 -19 0 -19 -9 -17 -212z"/>
<path d="M11624 4072 c-38 -30 -54 -76 -54 -152 0 -103 24 -136 65 -90 17 19
17 20 -9 29 -22 9 -26 16 -26 51 0 45 30 133 56 161 23 25 -2 26 -32 1z"/>
<path d="M11912 4075 c-27 -20 -28 -31 -2 -38 12 -3 20 -14 20 -26 0 -25 15
-28 24 -5 9 25 7 49 -7 67 -11 16 -14 16 -35 2z"/>
<path d="M12027 4058 c-29 -28 -35 -42 -41 -94 -12 -110 10 -176 49 -144 19
16 19 40 0 40 -12 0 -15 14 -15 65 0 65 14 109 48 148 27 30 -5 18 -41 -15z"/>
<path d="M8116 4067 c-13 -10 -15 -16 -8 -21 8 -5 12 -41 12 -100 0 -71 4 -97
15 -106 18 -15 18 -13 36 81 8 45 9 81 3 110 -10 47 -28 58 -58 36z"/>
<path d="M8235 4067 c-12 -10 -14 -16 -7 -21 8 -5 12 -41 12 -99 0 -68 4 -99
16 -115 8 -12 18 -22 22 -22 10 0 9 242 -1 258 -10 15 -19 15 -42 -1z"/>
<path d="M8454 4068 c-4 -6 0 -16 9 -23 23 -17 24 -151 1 -183 -22 -32 -13
-48 14 -25 55 44 57 243 3 243 -11 0 -23 -5 -27 -12z"/>
<path d="M8576 4073 c-3 -3 -6 -64 -6 -135 0 -117 2 -129 17 -126 14 3 17 12
14 46 -1 24 3 65 10 93 10 38 10 52 1 61 -7 7 -12 22 -12 34 0 24 -13 38 -24
27z"/>
<path d="M8901 4066 c-7 -8 -17 -41 -23 -74 -9 -50 -8 -68 7 -121 30 -99 41
-78 39 70 -2 72 -4 133 -7 135 -2 3 -9 -2 -16 -10z"/>
<path d="M10264 4065 c-3 -8 2 -22 11 -32 15 -14 17 -29 11 -92 -3 -41 -11
-80 -16 -85 -6 -6 -10 -16 -10 -23 0 -11 4 -11 20 -1 43 27 66 180 34 226 -17
25 -42 29 -50 7z"/>
<path d="M10696 4065 c-18 -14 -18 -15 8 -24 16 -7 26 -18 26 -31 0 -31 17
-24 23 10 12 56 -15 77 -57 45z"/>
<path d="M11120 4065 c-9 -11 -10 -18 -1 -29 7 -8 10 -46 9 -100 -2 -68 0 -89
12 -96 8 -5 18 -10 21 -10 13 0 24 204 13 234 -8 20 -38 21 -54 1z"/>
<path d="M11241 4066 c-9 -11 -9 -20 -2 -35 6 -11 11 -57 11 -103 1 -79 12
-118 36 -118 10 0 10 243 0 259 -10 15 -31 14 -45 -3z"/>
<path d="M11461 4066 c-10 -11 -8 -17 6 -25 15 -8 18 -22 17 -86 -1 -42 -7
-82 -13 -88 -6 -6 -11 -20 -11 -31 0 -19 1 -19 23 2 43 40 60 157 32 212 -17
33 -36 38 -54 16z"/>
<path d="M7905 4018 c-15 -104 2 -208 34 -208 3 0 5 57 4 127 -2 99 -6 129
-16 131 -10 2 -16 -13 -22 -50z"/>
<path d="M8024 4062 c-6 -4 -10 -52 -10 -127 1 -101 3 -120 17 -123 13 -2 17
12 24 85 4 48 7 101 6 117 -1 33 -20 59 -37 48z"/>
<path d="M9340 4051 c-21 -40 -24 -147 -6 -196 31 -80 41 -58 39 82 -2 126
-10 156 -33 114z"/>
<path d="M9434 4024 c-9 -61 0 -192 15 -207 8 -8 15 -7 28 6 15 14 15 21 5 37
-7 12 -12 57 -12 115 0 76 -3 95 -14 95 -10 0 -17 -16 -22 -46z"/>
<path d="M9547 4063 c-14 -23 -18 -116 -7 -144 11 -24 11 -48 0 -117 -6 -48
-18 -97 -26 -109 -16 -25 -18 -43 -5 -43 15 0 42 50 56 104 8 29 15 111 16
182 1 108 -1 129 -14 132 -8 2 -17 -1 -20 -5z"/>
<path d="M9761 4047 c-22 -56 -23 -116 -5 -177 10 -33 23 -60 29 -60 15 0 12
253 -4 258 -6 2 -15 -7 -20 -21z"/>
<path d="M10499 4043 c-16 -43 -16 -164 1 -197 29 -57 35 -40 35 94 0 99 -3
130 -13 130 -7 0 -17 -12 -23 -27z"/>
<path d="M10593 4033 c4 -21 7 -80 7 -130 0 -88 1 -93 21 -93 19 0 21 4 15 38
-3 21 -1 65 4 97 12 76 2 119 -30 123 -21 4 -23 1 -17 -35z"/>
<path d="M10915 4061 c-9 -15 -11 -183 -3 -212 7 -25 35 -46 45 -35 3 3 -1 21
-7 42 -8 24 -11 69 -8 126 4 69 3 88 -8 88 -7 0 -15 -4 -19 -9z"/>
<path d="M11024 4058 c-5 -7 -8 -66 -6 -131 3 -105 5 -118 20 -115 11 2 16 11
14 26 -2 12 2 55 7 95 11 72 5 127 -16 134 -5 2 -14 -2 -19 -9z"/>
<path d="M11700 4044 c-18 -47 -16 -165 4 -202 19 -38 44 -38 36 -1 -3 13 -5
70 -5 127 0 77 -3 102 -13 102 -7 0 -17 -12 -22 -26z"/>
<path d="M11798 3953 c4 -133 6 -143 26 -143 11 0 15 23 18 103 5 119 -1 151
-28 155 -20 3 -20 -2 -16 -115z"/>
<path d="M12117 4064 c-4 -4 -7 -22 -7 -40 0 -18 -4 -44 -10 -59 -7 -18 -5
-41 5 -80 17 -67 22 -75 42 -75 11 0 13 5 7 18 -5 9 -9 66 -10 126 -1 100 -8
129 -27 110z"/>
<path d="M7466 3913 c-3 -3 -6 -21 -6 -39 0 -26 7 -36 35 -54 26 -16 43 -20
63 -15 l27 7 -30 11 c-42 14 -65 36 -65 63 0 24 -13 38 -24 27z"/>
</g>
</svg>
