<?xml version="1.0" encoding="UTF-8"?>
<svg xmlns="http://www.w3.org/2000/svg" xmlns:xlink="http://www.w3.org/1999/xlink" width="48px" height="27px" viewBox="0 0 48 27" version="1.1">
<g id="surface1">
<path style=" stroke:none;fill-rule:nonzero;fill:rgb(96.078432%,0%,0%);fill-opacity:1;" d="M 15.230469 2.273438 C 15.113281 2.308594 14.976562 2.351562 14.925781 2.371094 C 14.691406 2.476562 14.226562 2.792969 13.820312 3.121094 C 13.695312 3.226562 13.261719 3.738281 13.125 3.945312 C 13.050781 4.054688 12.886719 4.347656 12.757812 4.601562 C 12.609375 4.898438 12.492188 5.074219 12.4375 5.101562 C 12.390625 5.132812 12.214844 5.234375 12.039062 5.335938 C 11.867188 5.433594 11.703125 5.511719 11.664062 5.503906 C 11.613281 5.496094 11.601562 5.433594 11.585938 5.050781 C 11.566406 4.5625 11.515625 4.382812 11.316406 4.070312 C 11.089844 3.714844 10.738281 3.460938 10.289062 3.324219 C 9.898438 3.207031 9.050781 3.25 8.546875 3.414062 C 7.175781 3.851562 6.148438 4.492188 5.273438 5.445312 C 5.054688 5.6875 4.789062 6.039062 4.632812 6.292969 C 4.363281 6.730469 4.085938 7.40625 4.015625 7.785156 C 4 7.875 3.96875 8.019531 3.949219 8.109375 C 3.90625 8.304688 3.902344 9.0625 3.945312 9.28125 C 3.988281 9.507812 4.046875 9.746094 4.082031 9.832031 C 4.195312 10.117188 4.417969 10.492188 4.59375 10.6875 C 4.707031 10.816406 4.796875 10.953125 4.796875 10.988281 C 4.796875 11.027344 4.761719 11.136719 4.722656 11.226562 C 4.605469 11.492188 4.59375 11.523438 4.535156 11.765625 C 4.433594 12.179688 4.488281 12.582031 4.699219 12.976562 C 4.835938 13.230469 4.890625 13.289062 5.058594 13.375 C 5.179688 13.441406 5.195312 13.441406 5.296875 13.390625 C 5.449219 13.3125 5.4375 13.195312 5.25 12.988281 C 5.035156 12.757812 4.992188 12.671875 4.941406 12.429688 C 4.867188 12.074219 4.976562 11.46875 5.148438 11.300781 C 5.207031 11.242188 5.21875 11.242188 5.4375 11.347656 C 5.859375 11.554688 6.070312 11.613281 6.605469 11.679688 C 6.96875 11.71875 7.113281 11.71875 7.574219 11.679688 C 7.875 11.652344 8.15625 11.613281 8.203125 11.59375 C 8.25 11.574219 8.320312 11.558594 8.367188 11.558594 C 8.414062 11.558594 8.539062 11.535156 8.640625 11.5 C 9.101562 11.367188 9.300781 11.296875 9.417969 11.253906 C 9.488281 11.21875 9.574219 11.183594 9.613281 11.167969 C 10.101562 10.960938 10.863281 10.53125 11.230469 10.261719 C 11.316406 10.191406 11.441406 10.101562 11.5 10.058594 C 11.726562 9.890625 12.292969 9.289062 12.453125 9.046875 C 12.628906 8.773438 12.9375 8.199219 12.9375 8.136719 C 12.9375 8.121094 12.960938 8.050781 12.988281 7.992188 C 13.136719 7.652344 13.320312 6.9375 13.488281 6.027344 C 13.519531 5.871094 13.5625 5.640625 13.59375 5.511719 C 13.621094 5.382812 13.664062 5.191406 13.6875 5.085938 C 13.734375 4.871094 13.808594 4.765625 14.003906 4.648438 C 14.074219 4.609375 14.136719 4.566406 14.148438 4.550781 C 14.15625 4.542969 14.230469 4.488281 14.308594 4.433594 C 14.386719 4.382812 14.484375 4.308594 14.523438 4.273438 C 14.558594 4.242188 14.695312 4.132812 14.824219 4.03125 C 15.171875 3.753906 15.6875 3.207031 15.8125 2.984375 C 15.957031 2.730469 15.96875 2.472656 15.847656 2.359375 C 15.765625 2.285156 15.558594 2.203125 15.484375 2.207031 C 15.460938 2.210938 15.347656 2.242188 15.230469 2.273438 Z M 15.496094 2.730469 C 15.496094 2.871094 14.789062 3.601562 14.273438 3.996094 C 14.109375 4.121094 14.039062 4.136719 14.039062 4.035156 C 14.039062 3.929688 14.371094 3.449219 14.609375 3.207031 C 15.023438 2.789062 15.496094 2.53125 15.496094 2.730469 Z M 10.171875 3.71875 C 10.628906 3.835938 11 4.175781 11.144531 4.605469 C 11.210938 4.800781 11.230469 5.375 11.183594 5.664062 C 11.15625 5.816406 11.140625 5.847656 10.992188 5.9375 C 10.898438 6 10.800781 6.042969 10.773438 6.035156 C 10.742188 6.03125 10.703125 5.925781 10.664062 5.738281 C 10.632812 5.582031 10.570312 5.402344 10.527344 5.339844 C 10.398438 5.15625 10.167969 4.984375 9.972656 4.925781 C 9.679688 4.832031 9.039062 4.875 8.691406 5.015625 C 8.3125 5.160156 7.820312 5.425781 7.605469 5.601562 C 7.394531 5.773438 6.820312 6.367188 6.695312 6.542969 C 6.535156 6.773438 6.257812 7.320312 6.257812 7.398438 C 6.257812 7.429688 6.242188 7.46875 6.222656 7.484375 C 6.207031 7.507812 6.164062 7.683594 6.128906 7.882812 C 6.074219 8.226562 6.074219 8.265625 6.132812 8.558594 C 6.167969 8.730469 6.21875 8.90625 6.246094 8.953125 C 6.273438 8.992188 6.292969 9.0625 6.285156 9.101562 C 6.277344 9.140625 6.136719 9.3125 5.96875 9.484375 C 5.800781 9.65625 5.601562 9.875 5.523438 9.976562 C 5.449219 10.070312 5.355469 10.183594 5.324219 10.222656 C 5.289062 10.265625 5.238281 10.328125 5.210938 10.367188 C 5.097656 10.519531 4.925781 10.261719 4.816406 9.765625 C 4.71875 9.320312 4.769531 8.496094 4.929688 7.984375 C 5.152344 7.265625 5.519531 6.601562 6.136719 5.816406 C 6.382812 5.496094 6.96875 4.90625 7.234375 4.707031 C 7.332031 4.632812 7.417969 4.5625 7.429688 4.550781 C 7.46875 4.503906 7.957031 4.195312 8.15625 4.097656 C 8.46875 3.9375 8.699219 3.839844 8.757812 3.839844 C 8.785156 3.839844 8.820312 3.828125 8.828125 3.808594 C 8.84375 3.792969 8.9375 3.765625 9.039062 3.753906 C 9.136719 3.738281 9.257812 3.710938 9.296875 3.695312 C 9.417969 3.644531 9.9375 3.660156 10.171875 3.71875 Z M 9.902344 5.320312 C 10.167969 5.429688 10.308594 5.640625 10.308594 5.9375 C 10.308594 6.03125 10.324219 6.152344 10.34375 6.203125 C 10.371094 6.285156 10.363281 6.300781 10.191406 6.414062 C 10.085938 6.476562 9.863281 6.617188 9.6875 6.722656 C 9.511719 6.824219 9.300781 6.957031 9.222656 7.007812 C 9.144531 7.058594 8.820312 7.277344 8.496094 7.488281 C 7.972656 7.832031 7.195312 8.390625 7.066406 8.511719 C 7.042969 8.535156 6.976562 8.582031 6.921875 8.617188 C 6.824219 8.675781 6.824219 8.675781 6.789062 8.589844 C 6.75 8.480469 6.769531 8.238281 6.847656 7.964844 C 7.15625 6.863281 8.230469 5.667969 9.222656 5.320312 C 9.417969 5.253906 9.738281 5.253906 9.902344 5.320312 Z M 12.226562 5.8125 C 12.226562 5.855469 12.214844 5.902344 12.199219 5.921875 C 12.179688 5.941406 12.113281 6.097656 12.050781 6.277344 C 11.945312 6.5625 11.871094 6.753906 11.765625 6.988281 C 11.746094 7.027344 11.691406 7.15625 11.640625 7.273438 C 11.308594 8.019531 10.875 8.769531 10.546875 9.164062 C 10.222656 9.550781 9.96875 9.828125 9.808594 9.960938 C 9.699219 10.046875 9.582031 10.144531 9.542969 10.183594 C 9.191406 10.503906 8.5625 10.886719 8.050781 11.097656 C 7.636719 11.265625 7.035156 11.335938 6.546875 11.28125 C 6.066406 11.21875 5.625 11.046875 5.472656 10.855469 L 5.40625 10.769531 L 5.625 10.480469 C 5.746094 10.320312 6 10.027344 6.1875 9.835938 L 6.53125 9.484375 L 6.878906 9.65625 L 7.230469 9.828125 L 7.621094 9.832031 C 7.902344 9.832031 8.074219 9.816406 8.230469 9.769531 C 9.222656 9.46875 10.347656 8.460938 10.964844 7.308594 C 11.007812 7.226562 11.0625 7.128906 11.082031 7.09375 C 11.105469 7.054688 11.15625 6.941406 11.195312 6.847656 C 11.238281 6.746094 11.285156 6.636719 11.304688 6.597656 C 11.316406 6.558594 11.367188 6.429688 11.410156 6.308594 C 11.480469 6.105469 11.5 6.085938 11.71875 5.953125 C 12.1875 5.675781 12.226562 5.664062 12.226562 5.8125 Z M 10.894531 6.570312 C 10.824219 6.851562 10.472656 7.46875 10.085938 7.984375 C 9.921875 8.199219 9.3125 8.785156 9.078125 8.949219 C 8.558594 9.3125 8.195312 9.441406 7.6875 9.441406 C 7.34375 9.441406 7.324219 9.4375 7.171875 9.335938 C 6.964844 9.1875 6.953125 9.078125 7.132812 8.945312 C 7.207031 8.886719 7.277344 8.832031 7.285156 8.816406 C 7.304688 8.792969 8.117188 8.183594 8.269531 8.082031 C 8.308594 8.058594 8.464844 7.957031 8.621094 7.851562 C 8.777344 7.753906 8.992188 7.609375 9.097656 7.539062 C 9.207031 7.46875 9.398438 7.347656 9.527344 7.273438 C 9.652344 7.199219 9.765625 7.125 9.773438 7.113281 C 9.800781 7.085938 10.738281 6.523438 10.804688 6.496094 C 10.90625 6.460938 10.917969 6.472656 10.894531 6.570312 Z M 10.894531 6.570312 "/>
<path style=" stroke:none;fill-rule:nonzero;fill:rgb(96.078432%,0%,0%);fill-opacity:1;" d="M 17.628906 4.011719 C 17.417969 4.0625 16.710938 4.082031 16.359375 4.046875 C 16.242188 4.035156 16.234375 4.046875 16.125 4.253906 C 16.058594 4.375 15.925781 4.609375 15.824219 4.777344 C 15.722656 4.941406 15.640625 5.085938 15.640625 5.097656 C 15.640625 5.105469 15.496094 5.355469 15.320312 5.648438 C 15.144531 5.941406 15 6.1875 15 6.199219 C 15 6.214844 14.890625 6.40625 14.75 6.632812 C 14.617188 6.859375 14.503906 7.050781 14.503906 7.066406 C 14.503906 7.078125 14.398438 7.257812 14.269531 7.46875 C 14.144531 7.679688 14.039062 7.859375 14.039062 7.875 C 14.039062 7.882812 13.953125 8.039062 13.84375 8.214844 C 13.738281 8.394531 13.648438 8.546875 13.648438 8.554688 C 13.648438 8.570312 13.570312 8.710938 13.476562 8.871094 C 13.382812 9.027344 13.226562 9.300781 13.132812 9.476562 C 13.042969 9.652344 12.953125 9.8125 12.9375 9.832031 C 12.914062 9.867188 12.839844 9.996094 12.554688 10.527344 C 12.488281 10.65625 12.417969 10.773438 12.40625 10.792969 C 12.390625 10.8125 12.320312 10.933594 12.253906 11.058594 C 12.183594 11.1875 12.097656 11.339844 12.0625 11.40625 C 12.027344 11.464844 12.011719 11.53125 12.023438 11.542969 C 12.039062 11.558594 12.230469 11.546875 12.453125 11.523438 C 12.820312 11.480469 13.167969 11.488281 13.453125 11.542969 C 13.554688 11.5625 13.566406 11.550781 13.628906 11.410156 C 14.003906 10.554688 14.40625 9.867188 14.953125 9.132812 C 15.195312 8.8125 15.613281 8.359375 15.875 8.140625 C 16.128906 7.921875 16.414062 7.867188 16.394531 8.035156 C 16.390625 8.082031 16.179688 8.425781 15.929688 8.796875 C 15.503906 9.4375 15.335938 9.714844 15.246094 9.921875 C 15.222656 9.972656 15.191406 10.039062 15.175781 10.070312 C 15.121094 10.175781 15.136719 10.625 15.199219 10.816406 C 15.324219 11.1875 15.730469 11.5 16.148438 11.542969 C 16.414062 11.570312 16.742188 11.472656 16.992188 11.292969 C 17.15625 11.167969 17.644531 10.675781 17.742188 10.53125 C 17.824219 10.414062 17.894531 10.453125 17.972656 10.660156 C 18.007812 10.75 18.082031 10.90625 18.136719 11 C 18.253906 11.183594 18.558594 11.453125 18.65625 11.453125 C 18.691406 11.453125 18.738281 11.472656 18.765625 11.496094 C 18.792969 11.527344 18.902344 11.539062 19.085938 11.535156 C 19.324219 11.53125 19.402344 11.511719 19.605469 11.414062 C 19.824219 11.304688 20.167969 11.011719 20.359375 10.761719 C 20.425781 10.679688 20.53125 10.742188 20.558594 10.890625 C 20.589844 11.058594 20.828125 11.320312 21.0625 11.4375 C 21.230469 11.523438 21.3125 11.539062 21.523438 11.539062 C 21.664062 11.539062 21.824219 11.519531 21.882812 11.492188 C 22.214844 11.335938 22.320312 11.269531 22.535156 11.070312 C 22.667969 10.945312 22.835938 10.769531 22.914062 10.667969 C 23.058594 10.476562 23.210938 10.421875 23.210938 10.566406 C 23.210938 10.691406 23.375 11.003906 23.515625 11.15625 C 23.59375 11.238281 23.746094 11.351562 23.859375 11.410156 C 24.113281 11.546875 24.53125 11.578125 24.75 11.476562 C 24.882812 11.414062 24.988281 11.414062 24.988281 11.480469 C 24.988281 11.554688 24.832031 11.640625 24.609375 11.691406 C 24.066406 11.804688 23.894531 11.839844 23.691406 11.890625 C 22.644531 12.140625 22.054688 12.363281 21.433594 12.726562 C 21.066406 12.945312 20.925781 13.054688 20.613281 13.367188 C 20.203125 13.78125 19.980469 14.167969 19.890625 14.632812 C 19.84375 14.882812 19.84375 14.949219 19.890625 15.1875 C 19.914062 15.332031 19.964844 15.503906 19.992188 15.5625 C 20.085938 15.761719 20.359375 16.03125 20.574219 16.136719 C 21.070312 16.378906 21.953125 16.175781 23.015625 15.566406 C 23.449219 15.320312 23.863281 15 24.308594 14.566406 C 24.773438 14.109375 25.125 13.6875 25.484375 13.140625 C 25.628906 12.925781 25.789062 12.683594 25.839844 12.605469 C 25.894531 12.523438 25.953125 12.421875 25.964844 12.378906 C 25.976562 12.339844 26 12.304688 26.019531 12.304688 C 26.03125 12.304688 26.066406 12.261719 26.085938 12.207031 C 26.109375 12.152344 26.1875 12.007812 26.261719 11.878906 C 26.398438 11.644531 26.464844 11.59375 26.824219 11.4375 C 27.046875 11.339844 27.53125 11.058594 27.679688 10.9375 C 27.703125 10.917969 27.742188 10.882812 27.769531 10.863281 C 27.792969 10.84375 27.886719 10.769531 27.980469 10.695312 C 28.175781 10.539062 28.214844 10.53125 28.242188 10.660156 C 28.328125 11.054688 28.511719 11.289062 28.84375 11.453125 C 29.042969 11.546875 29.105469 11.5625 29.28125 11.546875 C 29.679688 11.519531 30.121094 11.265625 30.511719 10.839844 C 30.769531 10.566406 30.824219 10.558594 30.871094 10.785156 C 30.925781 11.027344 31.277344 11.453125 31.429688 11.453125 C 31.457031 11.453125 31.496094 11.46875 31.519531 11.492188 C 31.539062 11.511719 31.667969 11.539062 31.800781 11.546875 C 32.019531 11.566406 32.074219 11.554688 32.324219 11.453125 C 32.550781 11.355469 32.65625 11.28125 32.90625 11.042969 C 33.292969 10.679688 33.855469 9.960938 34.355469 9.210938 C 34.480469 9.027344 34.625 8.816406 34.679688 8.75 C 34.957031 8.414062 35.269531 8.070312 35.332031 8.039062 C 35.417969 7.992188 35.535156 7.992188 35.5625 8.039062 C 35.589844 8.082031 35.339844 8.605469 35.0625 9.074219 C 34.9375 9.28125 34.835938 9.46875 34.835938 9.488281 C 34.835938 9.507812 34.820312 9.53125 34.804688 9.539062 C 34.765625 9.554688 33.582031 11.53125 33.605469 11.546875 C 33.613281 11.554688 33.867188 11.542969 34.167969 11.519531 C 34.609375 11.484375 34.769531 11.484375 34.960938 11.519531 C 35.09375 11.539062 35.210938 11.546875 35.230469 11.535156 C 35.242188 11.519531 35.292969 11.433594 35.339844 11.34375 C 35.386719 11.257812 35.488281 11.070312 35.5625 10.9375 C 35.636719 10.796875 35.710938 10.660156 35.726562 10.632812 C 35.789062 10.511719 36.234375 9.761719 36.253906 9.746094 C 36.261719 9.734375 36.328125 9.644531 36.394531 9.550781 C 36.769531 9 36.804688 8.953125 37.246094 8.492188 C 37.617188 8.105469 37.878906 7.921875 38.042969 7.9375 C 38.214844 7.957031 38.203125 8.050781 37.992188 8.375 C 37.890625 8.53125 37.652344 8.890625 37.46875 9.175781 C 37.28125 9.460938 37.097656 9.746094 37.066406 9.816406 C 36.796875 10.363281 36.84375 10.820312 37.210938 11.210938 C 37.324219 11.324219 37.425781 11.414062 37.445312 11.414062 C 37.464844 11.414062 37.53125 11.445312 37.589844 11.476562 C 37.664062 11.519531 37.78125 11.535156 37.984375 11.535156 C 38.417969 11.535156 38.648438 11.410156 39.152344 10.898438 C 39.371094 10.6875 39.582031 10.460938 39.625 10.402344 C 40.238281 9.585938 40.492188 9.195312 40.480469 9.101562 C 40.460938 8.988281 40.367188 8.9375 40.257812 8.992188 C 40.179688 9.027344 39.820312 9.476562 39.625 9.785156 C 39.59375 9.832031 39.542969 9.898438 39.519531 9.925781 C 39.492188 9.953125 39.382812 10.089844 39.273438 10.226562 C 38.832031 10.777344 38.386719 11.132812 38.140625 11.132812 C 38.019531 11.132812 37.972656 11.03125 38.035156 10.910156 C 38.058594 10.863281 38.273438 10.535156 38.511719 10.171875 C 39.054688 9.351562 39.15625 9.164062 39.207031 8.898438 C 39.253906 8.640625 39.210938 8.308594 39.097656 8.082031 C 38.953125 7.777344 38.558594 7.539062 38.203125 7.539062 C 37.835938 7.539062 37.359375 7.808594 36.925781 8.257812 C 36.8125 8.371094 36.707031 8.464844 36.6875 8.464844 C 36.664062 8.464844 36.640625 8.421875 36.625 8.363281 C 36.527344 7.898438 36.125 7.539062 35.703125 7.539062 C 35.394531 7.539062 35.199219 7.636719 34.886719 7.949219 C 34.726562 8.105469 34.5625 8.277344 34.519531 8.339844 C 34.347656 8.578125 33.988281 9.078125 33.839844 9.300781 C 33.421875 9.910156 33.132812 10.273438 32.753906 10.652344 C 32.476562 10.929688 32.394531 10.992188 32.21875 11.070312 C 31.925781 11.203125 31.847656 11.085938 32.019531 10.773438 C 32.335938 10.1875 33.078125 8.929688 33.71875 7.902344 L 33.945312 7.53125 L 33.773438 7.558594 C 33.425781 7.605469 32.613281 7.617188 32.476562 7.574219 C 32.347656 7.539062 32.335938 7.542969 32.261719 7.621094 C 32.214844 7.671875 32.167969 7.738281 32.152344 7.773438 C 32.140625 7.816406 32.117188 7.824219 32.09375 7.800781 C 32.070312 7.773438 32.105469 7.667969 32.195312 7.464844 C 32.273438 7.300781 32.347656 7.097656 32.359375 7.011719 C 32.371094 6.929688 32.40625 6.792969 32.433594 6.710938 C 32.511719 6.492188 32.503906 6.25 32.417969 6.171875 C 32.269531 6.039062 32.136719 6.164062 31.660156 6.878906 C 31.324219 7.386719 31.1875 7.527344 31.007812 7.570312 C 30.820312 7.617188 29.964844 7.621094 29.847656 7.578125 C 29.785156 7.554688 29.742188 7.558594 29.703125 7.585938 C 29.660156 7.621094 29.289062 8.257812 29.289062 8.300781 C 29.289062 8.3125 29.230469 8.410156 29.152344 8.523438 C 29.074219 8.636719 28.898438 8.9375 28.757812 9.191406 C 28.539062 9.570312 28.433594 9.710938 28.136719 10.023438 C 27.777344 10.394531 27.414062 10.699219 27.058594 10.910156 C 26.902344 11.007812 26.863281 11.019531 26.851562 10.972656 C 26.824219 10.914062 26.957031 10.644531 27.203125 10.246094 C 27.277344 10.121094 27.355469 9.984375 27.375 9.945312 C 27.386719 9.902344 27.453125 9.789062 27.511719 9.691406 C 27.570312 9.589844 27.628906 9.488281 27.640625 9.460938 C 27.652344 9.429688 27.867188 9.074219 28.113281 8.667969 C 28.359375 8.257812 28.582031 7.882812 28.609375 7.832031 C 28.636719 7.777344 28.679688 7.714844 28.710938 7.6875 C 28.734375 7.664062 28.757812 7.617188 28.757812 7.585938 C 28.757812 7.539062 28.730469 7.535156 28.589844 7.5625 C 28.492188 7.578125 28.140625 7.59375 27.804688 7.59375 C 27.273438 7.59375 27.1875 7.601562 27.175781 7.648438 C 27.164062 7.683594 27.117188 7.742188 27.074219 7.78125 L 26.992188 7.859375 L 26.871094 7.734375 C 26.804688 7.667969 26.722656 7.609375 26.691406 7.609375 C 26.65625 7.609375 26.617188 7.59375 26.605469 7.574219 C 26.554688 7.492188 25.792969 7.574219 25.585938 7.683594 C 25.550781 7.703125 25.503906 7.71875 25.484375 7.71875 C 25.382812 7.71875 24.769531 8.027344 24.453125 8.238281 C 24.15625 8.4375 23.746094 8.808594 23.585938 9.03125 C 23.515625 9.125 23.402344 9.320312 23.332031 9.464844 C 23.261719 9.609375 23.191406 9.734375 23.179688 9.746094 C 23.164062 9.753906 23.070312 9.871094 22.964844 10.011719 C 22.863281 10.144531 22.613281 10.421875 22.414062 10.621094 C 21.953125 11.082031 21.636719 11.242188 21.539062 11.058594 C 21.511719 11.007812 21.53125 10.941406 21.664062 10.730469 C 21.753906 10.582031 21.824219 10.445312 21.824219 10.421875 C 21.824219 10.402344 21.839844 10.382812 21.855469 10.382812 C 21.875 10.382812 21.902344 10.351562 21.914062 10.308594 C 21.925781 10.269531 22.296875 9.636719 22.738281 8.902344 C 23.179688 8.167969 23.527344 7.5625 23.515625 7.550781 C 23.507812 7.535156 23.386719 7.546875 23.257812 7.570312 C 23 7.621094 22.140625 7.609375 22.03125 7.5625 C 21.984375 7.539062 21.953125 7.566406 21.886719 7.679688 C 21.792969 7.84375 21.761719 7.855469 21.621094 7.738281 C 21.324219 7.488281 20.96875 7.476562 20.261719 7.6875 C 19.941406 7.785156 19.496094 8.007812 19.195312 8.230469 C 18.894531 8.441406 18.371094 8.992188 18.21875 9.25 C 18.074219 9.484375 17.78125 9.925781 17.742188 9.957031 C 17.730469 9.96875 17.628906 10.085938 17.519531 10.222656 C 17.21875 10.605469 16.933594 10.871094 16.6875 11.007812 C 16.257812 11.25 16.144531 11.140625 16.402344 10.730469 C 16.488281 10.589844 16.644531 10.339844 16.746094 10.171875 C 16.847656 10.003906 17.015625 9.742188 17.117188 9.585938 C 17.453125 9.066406 17.519531 8.835938 17.453125 8.417969 C 17.390625 8.027344 17.160156 7.746094 16.796875 7.605469 C 16.511719 7.5 16.183594 7.53125 15.855469 7.707031 C 15.742188 7.761719 15.675781 7.765625 15.675781 7.710938 C 15.675781 7.632812 16.332031 6.546875 16.859375 5.761719 C 16.992188 5.558594 17.152344 5.300781 17.210938 5.191406 C 17.304688 5.027344 17.648438 4.445312 17.890625 4.054688 C 17.96875 3.929688 17.964844 3.929688 17.628906 4.011719 Z M 30.996094 7.792969 C 30.996094 7.824219 30.96875 7.871094 30.941406 7.894531 C 30.914062 7.921875 30.886719 7.953125 30.886719 7.96875 C 30.886719 7.988281 30.769531 8.199219 30.621094 8.445312 C 30.476562 8.695312 30.355469 8.902344 30.355469 8.910156 C 30.355469 8.914062 30.3125 8.984375 30.261719 9.058594 C 30.214844 9.132812 30.15625 9.226562 30.136719 9.265625 C 30.121094 9.304688 30.074219 9.382812 30.035156 9.441406 C 29.996094 9.5 29.953125 9.574219 29.941406 9.601562 C 29.925781 9.628906 29.875 9.710938 29.828125 9.78125 C 29.78125 9.847656 29.730469 9.9375 29.710938 9.976562 C 29.695312 10.015625 29.648438 10.09375 29.613281 10.152344 C 29.503906 10.324219 29.296875 10.742188 29.238281 10.917969 C 29.191406 11.058594 29.191406 11.085938 29.238281 11.15625 C 29.292969 11.242188 29.347656 11.253906 29.585938 11.242188 C 29.769531 11.226562 29.746094 11.292969 29.542969 11.359375 C 29.007812 11.535156 28.542969 11.253906 28.398438 10.679688 C 28.3125 10.335938 28.445312 9.96875 28.992188 9.058594 C 29.15625 8.789062 29.289062 8.554688 29.289062 8.546875 C 29.289062 8.53125 29.308594 8.496094 29.339844 8.46875 C 29.382812 8.417969 29.554688 8.113281 29.703125 7.820312 L 29.75 7.726562 L 30.375 7.730469 C 30.925781 7.730469 30.996094 7.738281 30.996094 7.792969 Z M 33.625 7.753906 C 33.625 7.769531 33.527344 7.945312 33.40625 8.140625 C 33.28125 8.339844 33.164062 8.527344 33.144531 8.5625 C 33.125 8.597656 33.0625 8.691406 33.011719 8.777344 C 32.957031 8.859375 32.878906 8.988281 32.839844 9.0625 C 32.800781 9.132812 32.738281 9.238281 32.703125 9.300781 C 32.664062 9.355469 32.589844 9.484375 32.542969 9.585938 C 32.488281 9.679688 32.40625 9.8125 32.359375 9.875 C 32.3125 9.9375 32.273438 10 32.273438 10.015625 C 32.273438 10.027344 32.222656 10.128906 32.152344 10.238281 C 31.957031 10.570312 31.742188 10.996094 31.742188 11.058594 C 31.742188 11.257812 32.066406 11.308594 32.347656 11.167969 C 32.53125 11.070312 33.140625 10.46875 33.386719 10.144531 C 33.480469 10.027344 33.574219 9.90625 33.601562 9.878906 C 33.625 9.855469 33.65625 9.808594 33.667969 9.78125 C 33.714844 9.671875 34.019531 9.3125 34.050781 9.335938 C 34.085938 9.355469 33.847656 9.746094 33.800781 9.746094 C 33.78125 9.746094 33.769531 9.761719 33.769531 9.785156 C 33.769531 9.828125 33.585938 10.070312 33.476562 10.183594 C 33.441406 10.21875 33.375 10.304688 33.328125 10.378906 C 33.195312 10.582031 32.625 11.160156 32.488281 11.21875 C 32.421875 11.25 32.339844 11.289062 32.308594 11.304688 C 31.96875 11.5 31.457031 11.414062 31.199219 11.117188 C 31.039062 10.933594 30.984375 10.765625 30.976562 10.460938 C 30.972656 10.261719 30.960938 10.152344 30.929688 10.144531 C 30.90625 10.136719 30.886719 10.148438 30.886719 10.179688 C 30.886719 10.203125 30.859375 10.253906 30.828125 10.28125 C 30.792969 10.3125 30.691406 10.421875 30.605469 10.527344 C 30.382812 10.785156 30.136719 11.023438 30.082031 11.023438 C 30.058594 11.023438 30.035156 11.039062 30.035156 11.058594 C 30.035156 11.089844 29.820312 11.238281 29.773438 11.238281 C 29.71875 11.238281 29.757812 11.171875 29.824219 11.148438 C 29.988281 11.097656 30.546875 10.535156 30.839844 10.125 C 30.886719 10.066406 30.9375 9.992188 30.960938 9.96875 C 31.007812 9.90625 31.511719 9.15625 31.542969 9.101562 C 31.554688 9.074219 31.597656 9 31.636719 8.945312 C 31.675781 8.882812 31.71875 8.8125 31.730469 8.785156 C 31.746094 8.753906 31.816406 8.640625 31.890625 8.527344 C 31.964844 8.414062 32.042969 8.285156 32.066406 8.242188 C 32.105469 8.15625 32.140625 8.09375 32.277344 7.878906 L 32.371094 7.734375 L 33 7.726562 C 33.34375 7.726562 33.625 7.738281 33.625 7.753906 Z M 21.355469 7.972656 C 21.492188 8.109375 21.332031 8.5625 20.867188 9.335938 C 20.6875 9.640625 20.585938 9.800781 20.316406 10.214844 C 20.132812 10.5 19.75 10.898438 19.550781 11.019531 C 19.363281 11.136719 19.167969 11.164062 19.09375 11.089844 C 19.046875 11.039062 19.039062 10.683594 19.085938 10.652344 C 19.109375 10.640625 19.125 10.605469 19.125 10.578125 C 19.125 10.523438 19.234375 10.253906 19.308594 10.117188 C 19.328125 10.082031 19.382812 9.984375 19.421875 9.90625 C 19.519531 9.730469 19.945312 9.078125 20.03125 8.972656 C 20.074219 8.929688 20.167969 8.808594 20.253906 8.703125 C 20.457031 8.441406 20.8125 8.125 21.058594 7.976562 C 21.152344 7.921875 21.300781 7.921875 21.355469 7.972656 Z M 26.625 8.003906 C 26.667969 8.085938 26.648438 8.34375 26.589844 8.453125 C 26.574219 8.488281 26.5 8.644531 26.425781 8.800781 C 26.195312 9.28125 25.757812 9.984375 25.394531 10.457031 C 25.085938 10.851562 24.730469 11.132812 24.519531 11.132812 C 24.386719 11.132812 24.277344 11.042969 24.277344 10.9375 C 24.28125 10.761719 24.574219 10.0625 24.820312 9.660156 C 25.023438 9.324219 25.527344 8.675781 25.785156 8.414062 C 26.222656 7.976562 26.53125 7.828125 26.625 8.003906 Z M 30.160156 9.847656 C 30.183594 9.972656 30.339844 10.121094 30.472656 10.152344 C 30.527344 10.167969 30.570312 10.199219 30.570312 10.222656 C 30.570312 10.273438 30.066406 10.800781 29.894531 10.9375 C 29.765625 11.039062 29.519531 11.140625 29.445312 11.125 C 29.40625 11.117188 29.375 11.078125 29.367188 11.03125 C 29.351562 10.945312 29.539062 10.546875 29.777344 10.148438 C 29.863281 10.011719 29.929688 9.878906 29.929688 9.859375 C 29.929688 9.816406 30.078125 9.710938 30.113281 9.730469 C 30.125 9.738281 30.144531 9.789062 30.160156 9.847656 Z M 24.585938 12.113281 C 24.597656 12.144531 24.59375 12.199219 24.574219 12.230469 C 24.554688 12.261719 24.507812 12.34375 24.472656 12.410156 C 24.351562 12.628906 24.054688 13.140625 24.03125 13.160156 C 24.019531 13.167969 23.945312 13.28125 23.871094 13.40625 C 23.75 13.605469 23.253906 14.351562 23.167969 14.457031 C 22.519531 15.273438 22.152344 15.605469 21.675781 15.792969 C 21.453125 15.882812 20.996094 15.902344 20.863281 15.832031 C 20.675781 15.734375 20.632812 15.625 20.632812 15.257812 C 20.632812 14.890625 20.683594 14.710938 20.878906 14.386719 C 21.335938 13.621094 22.183594 12.96875 23.40625 12.449219 C 23.445312 12.429688 23.535156 12.394531 23.601562 12.363281 C 23.667969 12.332031 23.839844 12.277344 23.976562 12.230469 C 24.113281 12.1875 24.289062 12.128906 24.367188 12.105469 C 24.550781 12.046875 24.5625 12.046875 24.585938 12.113281 Z M 24.585938 12.113281 "/>
<path style=" stroke:none;fill-rule:nonzero;fill:rgb(96.078432%,0%,0%);fill-opacity:1;" d="M 32.433594 11.855469 C 32.390625 11.921875 32.378906 12.046875 32.378906 12.378906 C 32.375 12.621094 32.355469 12.855469 32.335938 12.898438 C 32.308594 12.957031 32.308594 13.019531 32.339844 13.113281 C 32.359375 13.1875 32.386719 13.28125 32.398438 13.324219 C 32.410156 13.363281 32.4375 13.40625 32.464844 13.417969 C 32.496094 13.429688 32.503906 13.304688 32.496094 12.886719 C 32.484375 12.484375 32.496094 12.28125 32.539062 12.09375 C 32.570312 11.957031 32.59375 11.828125 32.59375 11.8125 C 32.59375 11.738281 32.492188 11.773438 32.433594 11.855469 Z M 32.433594 11.855469 "/>
<path style=" stroke:none;fill-rule:nonzero;fill:rgb(96.078432%,0%,0%);fill-opacity:1;" d="M 26.871094 11.949219 C 26.871094 11.96875 26.851562 11.984375 26.824219 11.984375 C 26.761719 11.984375 26.625 12.195312 26.625 12.289062 C 26.625 12.425781 26.742188 12.59375 26.9375 12.71875 C 27.332031 12.972656 27.457031 13.164062 27.328125 13.292969 C 27.273438 13.347656 27.316406 13.351562 27.410156 13.300781 C 27.457031 13.273438 27.476562 13.226562 27.476562 13.113281 C 27.476562 12.925781 27.46875 12.917969 27.226562 12.75 C 26.867188 12.5 26.839844 12.472656 26.820312 12.367188 C 26.785156 12.230469 26.828125 12.066406 26.917969 11.984375 C 26.980469 11.925781 26.980469 11.914062 26.933594 11.914062 C 26.902344 11.914062 26.871094 11.929688 26.871094 11.949219 Z M 26.871094 11.949219 "/>
<path style=" stroke:none;fill-rule:nonzero;fill:rgb(96.078432%,0%,0%);fill-opacity:1;" d="M 27.289062 11.992188 C 27.300781 12.039062 27.3125 12.152344 27.308594 12.25 L 27.300781 12.429688 L 27.371094 12.34375 C 27.457031 12.242188 27.457031 12.152344 27.378906 12.015625 C 27.308594 11.894531 27.246094 11.878906 27.289062 11.992188 Z M 27.289062 11.992188 "/>
<path style=" stroke:none;fill-rule:nonzero;fill:rgb(96.078432%,0%,0%);fill-opacity:1;" d="M 46.113281 12.199219 C 45.988281 12.226562 45.933594 12.257812 45.753906 12.425781 C 45.574219 12.589844 45.515625 12.746094 45.515625 13.035156 C 45.519531 13.390625 45.644531 13.605469 45.976562 13.820312 C 46.121094 13.910156 46.558594 13.917969 46.746094 13.828125 C 46.875 13.761719 47.09375 13.550781 47.167969 13.40625 C 47.191406 13.359375 47.210938 13.199219 47.210938 13.039062 C 47.214844 12.691406 47.144531 12.53125 46.898438 12.34375 C 46.675781 12.175781 46.410156 12.128906 46.113281 12.199219 Z M 46.113281 12.199219 "/>
<path style=" stroke:none;fill-rule:nonzero;fill:rgb(96.078432%,0%,0%);fill-opacity:1;" d="M 29.738281 12.4375 C 29.703125 12.472656 29.710938 13.96875 29.746094 13.996094 C 29.8125 14.03125 29.824219 13.949219 29.824219 13.519531 C 29.828125 13.273438 29.851562 13.019531 29.875 12.933594 C 29.910156 12.820312 29.914062 12.734375 29.886719 12.613281 C 29.855469 12.464844 29.785156 12.386719 29.738281 12.4375 Z M 29.738281 12.4375 "/>
<path style=" stroke:none;fill-rule:nonzero;fill:rgb(96.078432%,0%,0%);fill-opacity:1;" d="M 27.882812 12.488281 C 27.757812 12.546875 27.6875 12.71875 27.664062 12.992188 C 27.640625 13.363281 27.734375 13.550781 27.871094 13.386719 C 27.910156 13.335938 27.910156 13.320312 27.855469 13.28125 C 27.808594 13.25 27.796875 13.1875 27.796875 13.003906 C 27.796875 12.769531 27.859375 12.589844 27.972656 12.492188 C 28.039062 12.441406 27.984375 12.4375 27.882812 12.488281 Z M 27.882812 12.488281 "/>
<path style=" stroke:none;fill-rule:nonzero;fill:rgb(96.078432%,0%,0%);fill-opacity:1;" d="M 30.871094 12.496094 C 30.816406 12.535156 30.808594 12.558594 30.84375 12.59375 C 30.863281 12.621094 30.886719 12.683594 30.894531 12.730469 C 30.914062 12.878906 30.976562 12.832031 30.988281 12.664062 C 31.003906 12.480469 30.964844 12.429688 30.871094 12.496094 Z M 30.871094 12.496094 "/>
<path style=" stroke:none;fill-rule:nonzero;fill:rgb(96.078432%,0%,0%);fill-opacity:1;" d="M 31.308594 12.523438 C 31.25 12.5625 31.207031 12.621094 31.207031 12.65625 C 31.207031 12.6875 31.191406 12.734375 31.167969 12.757812 C 31.109375 12.816406 31.089844 13.234375 31.144531 13.335938 C 31.203125 13.441406 31.308594 13.453125 31.363281 13.363281 C 31.398438 13.316406 31.386719 13.289062 31.324219 13.246094 C 31.277344 13.210938 31.242188 13.152344 31.242188 13.101562 C 31.242188 12.9375 31.324219 12.679688 31.410156 12.5625 C 31.511719 12.429688 31.457031 12.40625 31.308594 12.523438 Z M 31.308594 12.523438 "/>
<path style=" stroke:none;fill-rule:nonzero;fill:rgb(96.078432%,0%,0%);fill-opacity:1;" d="M 32.148438 12.488281 C 32.03125 12.542969 31.953125 12.710938 31.933594 12.953125 C 31.910156 13.222656 31.953125 13.421875 32.039062 13.4375 C 32.109375 13.449219 32.167969 13.390625 32.167969 13.308594 C 32.167969 13.285156 32.144531 13.265625 32.113281 13.265625 C 32.074219 13.265625 32.0625 13.214844 32.0625 13.042969 C 32.0625 12.789062 32.152344 12.539062 32.257812 12.488281 C 32.304688 12.464844 32.308594 12.449219 32.273438 12.449219 C 32.246094 12.449219 32.191406 12.46875 32.148438 12.488281 Z M 32.148438 12.488281 "/>
<path style=" stroke:none;fill-rule:nonzero;fill:rgb(96.078432%,0%,0%);fill-opacity:1;" d="M 32.90625 12.527344 C 32.722656 12.679688 32.628906 13.1875 32.757812 13.363281 C 32.824219 13.457031 32.863281 13.464844 32.9375 13.394531 C 33.003906 13.320312 33 13.277344 32.914062 13.253906 C 32.859375 13.242188 32.84375 13.207031 32.84375 13.082031 C 32.84375 12.878906 32.914062 12.648438 33.015625 12.539062 C 33.109375 12.425781 33.039062 12.417969 32.90625 12.527344 Z M 32.90625 12.527344 "/>
<path style=" stroke:none;fill-rule:nonzero;fill:rgb(96.078432%,0%,0%);fill-opacity:1;" d="M 34.402344 12.527344 C 34.148438 12.738281 34.136719 13.527344 34.386719 13.433594 C 34.480469 13.394531 34.496094 13.300781 34.410156 13.242188 C 34.28125 13.152344 34.332031 12.789062 34.5 12.5625 C 34.601562 12.425781 34.546875 12.40625 34.402344 12.527344 Z M 34.402344 12.527344 "/>
<path style=" stroke:none;fill-rule:nonzero;fill:rgb(96.078432%,0%,0%);fill-opacity:1;" d="M 36.132812 13.203125 C 36.132812 13.84375 36.136719 13.957031 36.183594 13.96875 C 36.230469 13.976562 36.238281 13.917969 36.234375 13.578125 C 36.230469 13.320312 36.246094 13.128906 36.277344 13.039062 C 36.328125 12.894531 36.34375 12.605469 36.304688 12.503906 C 36.296875 12.472656 36.25 12.449219 36.207031 12.449219 C 36.132812 12.449219 36.132812 12.453125 36.132812 13.203125 Z M 36.132812 13.203125 "/>
<path style=" stroke:none;fill-rule:nonzero;fill:rgb(96.078432%,0%,0%);fill-opacity:1;" d="M 37.050781 12.511719 C 36.90625 12.628906 36.855469 12.78125 36.867188 13.09375 C 36.875 13.320312 36.890625 13.390625 36.9375 13.421875 C 36.988281 13.449219 37.015625 13.441406 37.082031 13.382812 L 37.160156 13.304688 L 37.0625 13.269531 C 36.976562 13.238281 36.96875 13.210938 36.96875 13.0625 C 36.96875 12.886719 37.066406 12.625 37.167969 12.511719 C 37.246094 12.425781 37.15625 12.425781 37.050781 12.511719 Z M 37.050781 12.511719 "/>
<path style=" stroke:none;fill-rule:nonzero;fill:rgb(96.078432%,0%,0%);fill-opacity:1;" d="M 38.480469 12.574219 C 38.375 12.6875 38.355469 12.726562 38.339844 12.9375 C 38.308594 13.242188 38.347656 13.421875 38.441406 13.4375 C 38.484375 13.441406 38.53125 13.414062 38.558594 13.371094 C 38.601562 13.304688 38.597656 13.292969 38.535156 13.277344 C 38.46875 13.257812 38.460938 13.230469 38.460938 13.039062 C 38.460938 12.867188 38.480469 12.78125 38.5625 12.632812 C 38.683594 12.414062 38.65625 12.394531 38.480469 12.574219 Z M 38.480469 12.574219 "/>
<path style=" stroke:none;fill-rule:nonzero;fill:rgb(96.078432%,0%,0%);fill-opacity:1;" d="M 40.390625 13.203125 C 40.398438 13.839844 40.402344 13.957031 40.449219 13.96875 C 40.496094 13.976562 40.503906 13.917969 40.496094 13.558594 C 40.488281 13.261719 40.503906 13.101562 40.539062 13.003906 C 40.636719 12.75 40.59375 12.449219 40.449219 12.449219 C 40.382812 12.449219 40.382812 12.480469 40.390625 13.203125 Z M 40.390625 13.203125 "/>
<path style=" stroke:none;fill-rule:nonzero;fill:rgb(96.078432%,0%,0%);fill-opacity:1;" d="M 41.316406 12.511719 C 41.183594 12.617188 41.125 12.78125 41.125 13.050781 C 41.125 13.417969 41.210938 13.535156 41.355469 13.371094 C 41.417969 13.304688 41.417969 13.300781 41.324219 13.269531 C 41.246094 13.238281 41.230469 13.210938 41.230469 13.085938 C 41.230469 12.925781 41.339844 12.613281 41.429688 12.515625 C 41.511719 12.425781 41.425781 12.421875 41.316406 12.511719 Z M 41.316406 12.511719 "/>
<path style=" stroke:none;fill-rule:nonzero;fill:rgb(96.078432%,0%,0%);fill-opacity:1;" d="M 42.339844 12.5 C 42.246094 12.570312 42.242188 12.609375 42.335938 12.636719 C 42.375 12.644531 42.40625 12.6875 42.40625 12.726562 C 42.40625 12.816406 42.457031 12.828125 42.492188 12.746094 C 42.523438 12.65625 42.515625 12.570312 42.464844 12.507812 C 42.425781 12.449219 42.414062 12.449219 42.339844 12.5 Z M 42.339844 12.5 "/>
<path style=" stroke:none;fill-rule:nonzero;fill:rgb(96.078432%,0%,0%);fill-opacity:1;" d="M 42.75 12.5625 C 42.648438 12.660156 42.625 12.710938 42.605469 12.894531 C 42.5625 13.285156 42.640625 13.519531 42.777344 13.40625 C 42.847656 13.351562 42.847656 13.265625 42.777344 13.265625 C 42.734375 13.265625 42.726562 13.214844 42.726562 13.035156 C 42.726562 12.804688 42.773438 12.644531 42.894531 12.507812 C 42.992188 12.402344 42.878906 12.445312 42.75 12.5625 Z M 42.75 12.5625 "/>
<path style=" stroke:none;fill-rule:nonzero;fill:rgb(96.078432%,0%,0%);fill-opacity:1;" d="M 28.847656 12.527344 C 28.800781 12.566406 28.796875 12.585938 28.820312 12.605469 C 28.847656 12.621094 28.863281 12.75 28.863281 12.960938 C 28.863281 13.210938 28.875 13.304688 28.914062 13.335938 C 28.980469 13.390625 28.980469 13.382812 29.042969 13.046875 C 29.074219 12.886719 29.074219 12.761719 29.054688 12.65625 C 29.019531 12.488281 28.953125 12.449219 28.847656 12.527344 Z M 28.847656 12.527344 "/>
<path style=" stroke:none;fill-rule:nonzero;fill:rgb(96.078432%,0%,0%);fill-opacity:1;" d="M 29.269531 12.527344 C 29.230469 12.566406 29.222656 12.585938 29.246094 12.605469 C 29.273438 12.621094 29.289062 12.75 29.289062 12.957031 C 29.289062 13.199219 29.304688 13.308594 29.347656 13.363281 C 29.375 13.40625 29.410156 13.441406 29.425781 13.441406 C 29.460938 13.441406 29.457031 12.582031 29.421875 12.527344 C 29.386719 12.472656 29.351562 12.472656 29.269531 12.527344 Z M 29.269531 12.527344 "/>
<path style=" stroke:none;fill-rule:nonzero;fill:rgb(96.078432%,0%,0%);fill-opacity:1;" d="M 30.050781 12.527344 C 30.035156 12.546875 30.050781 12.582031 30.082031 12.605469 C 30.164062 12.667969 30.167969 13.144531 30.085938 13.257812 C 30.007812 13.371094 30.039062 13.429688 30.136719 13.347656 C 30.332031 13.191406 30.335938 12.484375 30.144531 12.484375 C 30.105469 12.484375 30.0625 12.5 30.050781 12.527344 Z M 30.050781 12.527344 "/>
<path style=" stroke:none;fill-rule:nonzero;fill:rgb(96.078432%,0%,0%);fill-opacity:1;" d="M 30.484375 12.507812 C 30.472656 12.519531 30.460938 12.734375 30.460938 12.988281 C 30.460938 13.402344 30.46875 13.445312 30.523438 13.4375 C 30.574219 13.425781 30.582031 13.394531 30.574219 13.273438 C 30.570312 13.1875 30.582031 13.042969 30.609375 12.941406 C 30.644531 12.804688 30.644531 12.757812 30.613281 12.726562 C 30.585938 12.699219 30.570312 12.644531 30.570312 12.605469 C 30.570312 12.519531 30.523438 12.46875 30.484375 12.507812 Z M 30.484375 12.507812 "/>
<path style=" stroke:none;fill-rule:nonzero;fill:rgb(96.078432%,0%,0%);fill-opacity:1;" d="M 31.636719 12.53125 C 31.613281 12.5625 31.578125 12.679688 31.558594 12.796875 C 31.523438 12.972656 31.527344 13.039062 31.582031 13.226562 C 31.6875 13.578125 31.726562 13.503906 31.71875 12.976562 C 31.714844 12.722656 31.707031 12.503906 31.695312 12.496094 C 31.6875 12.488281 31.664062 12.503906 31.636719 12.53125 Z M 31.636719 12.53125 "/>
<path style=" stroke:none;fill-rule:nonzero;fill:rgb(96.078432%,0%,0%);fill-opacity:1;" d="M 36.484375 12.535156 C 36.472656 12.566406 36.492188 12.613281 36.523438 12.648438 C 36.574219 12.699219 36.582031 12.753906 36.5625 12.976562 C 36.550781 13.121094 36.523438 13.261719 36.503906 13.28125 C 36.484375 13.300781 36.46875 13.335938 36.46875 13.359375 C 36.46875 13.402344 36.484375 13.402344 36.539062 13.363281 C 36.691406 13.269531 36.773438 12.726562 36.660156 12.5625 C 36.601562 12.472656 36.511719 12.457031 36.484375 12.535156 Z M 36.484375 12.535156 "/>
<path style=" stroke:none;fill-rule:nonzero;fill:rgb(96.078432%,0%,0%);fill-opacity:1;" d="M 38.019531 12.535156 C 37.953125 12.585938 37.953125 12.589844 38.046875 12.621094 C 38.105469 12.644531 38.140625 12.6875 38.140625 12.730469 C 38.140625 12.84375 38.199219 12.816406 38.222656 12.695312 C 38.265625 12.496094 38.167969 12.421875 38.019531 12.535156 Z M 38.019531 12.535156 "/>
<path style=" stroke:none;fill-rule:nonzero;fill:rgb(96.078432%,0%,0%);fill-opacity:1;" d="M 39.527344 12.535156 C 39.492188 12.574219 39.492188 12.601562 39.523438 12.640625 C 39.546875 12.667969 39.558594 12.804688 39.554688 12.996094 C 39.546875 13.238281 39.554688 13.3125 39.597656 13.335938 C 39.625 13.355469 39.660156 13.371094 39.671875 13.371094 C 39.71875 13.371094 39.757812 12.644531 39.71875 12.539062 C 39.691406 12.46875 39.582031 12.464844 39.527344 12.535156 Z M 39.527344 12.535156 "/>
<path style=" stroke:none;fill-rule:nonzero;fill:rgb(96.078432%,0%,0%);fill-opacity:1;" d="M 39.957031 12.53125 C 39.925781 12.570312 39.925781 12.605469 39.949219 12.65625 C 39.96875 12.695312 39.988281 12.859375 39.988281 13.023438 C 39.992188 13.304688 40.03125 13.441406 40.117188 13.441406 C 40.152344 13.441406 40.152344 12.578125 40.117188 12.523438 C 40.082031 12.46875 40.007812 12.472656 39.957031 12.53125 Z M 39.957031 12.53125 "/>
<path style=" stroke:none;fill-rule:nonzero;fill:rgb(96.078432%,0%,0%);fill-opacity:1;" d="M 40.738281 12.53125 C 40.703125 12.570312 40.710938 12.59375 40.757812 12.621094 C 40.8125 12.648438 40.824219 12.699219 40.820312 12.925781 C 40.816406 13.078125 40.796875 13.21875 40.773438 13.242188 C 40.753906 13.261719 40.734375 13.3125 40.734375 13.351562 C 40.734375 13.417969 40.738281 13.417969 40.816406 13.34375 C 40.96875 13.203125 41.03125 12.785156 40.929688 12.589844 C 40.871094 12.472656 40.800781 12.453125 40.738281 12.53125 Z M 40.738281 12.53125 "/>
<path style=" stroke:none;fill-rule:nonzero;fill:rgb(96.078432%,0%,0%);fill-opacity:1;" d="M 28.097656 12.703125 C 28.046875 13.074219 28.105469 13.441406 28.21875 13.441406 C 28.230469 13.441406 28.238281 13.242188 28.234375 12.992188 C 28.226562 12.640625 28.210938 12.53125 28.175781 12.527344 C 28.140625 12.519531 28.121094 12.570312 28.097656 12.703125 Z M 28.097656 12.703125 "/>
<path style=" stroke:none;fill-rule:nonzero;fill:rgb(96.078432%,0%,0%);fill-opacity:1;" d="M 28.519531 12.546875 C 28.5 12.5625 28.484375 12.730469 28.484375 13 C 28.488281 13.359375 28.496094 13.425781 28.546875 13.4375 C 28.59375 13.441406 28.605469 13.394531 28.632812 13.132812 C 28.644531 12.964844 28.65625 12.773438 28.652344 12.71875 C 28.648438 12.601562 28.582031 12.507812 28.519531 12.546875 Z M 28.519531 12.546875 "/>
<path style=" stroke:none;fill-rule:nonzero;fill:rgb(96.078432%,0%,0%);fill-opacity:1;" d="M 33.199219 12.585938 C 33.125 12.726562 33.113281 13.109375 33.175781 13.28125 C 33.289062 13.566406 33.324219 13.488281 33.316406 12.992188 C 33.308594 12.542969 33.28125 12.4375 33.199219 12.585938 Z M 33.199219 12.585938 "/>
<path style=" stroke:none;fill-rule:nonzero;fill:rgb(96.078432%,0%,0%);fill-opacity:1;" d="M 33.53125 12.683594 C 33.5 12.898438 33.53125 13.363281 33.585938 13.417969 C 33.613281 13.445312 33.640625 13.441406 33.6875 13.398438 C 33.738281 13.347656 33.738281 13.320312 33.703125 13.265625 C 33.679688 13.222656 33.660156 13.0625 33.660156 12.855469 C 33.660156 12.585938 33.652344 12.519531 33.613281 12.519531 C 33.574219 12.519531 33.550781 12.574219 33.53125 12.683594 Z M 33.53125 12.683594 "/>
<path style=" stroke:none;fill-rule:nonzero;fill:rgb(96.078432%,0%,0%);fill-opacity:1;" d="M 33.933594 12.542969 C 33.886719 12.625 33.871094 12.957031 33.910156 13.054688 C 33.949219 13.140625 33.949219 13.226562 33.910156 13.472656 C 33.886719 13.640625 33.847656 13.816406 33.816406 13.859375 C 33.761719 13.949219 33.753906 14.011719 33.800781 14.011719 C 33.851562 14.011719 33.949219 13.835938 34 13.640625 C 34.027344 13.539062 34.050781 13.246094 34.054688 12.996094 C 34.058594 12.609375 34.050781 12.535156 34.007812 12.527344 C 33.976562 12.519531 33.945312 12.527344 33.933594 12.542969 Z M 33.933594 12.542969 "/>
<path style=" stroke:none;fill-rule:nonzero;fill:rgb(96.078432%,0%,0%);fill-opacity:1;" d="M 34.695312 12.601562 C 34.617188 12.800781 34.613281 13.011719 34.675781 13.230469 C 34.714844 13.347656 34.757812 13.441406 34.78125 13.441406 C 34.835938 13.441406 34.824219 12.542969 34.765625 12.527344 C 34.746094 12.519531 34.714844 12.550781 34.695312 12.601562 Z M 34.695312 12.601562 "/>
<path style=" stroke:none;fill-rule:nonzero;fill:rgb(96.078432%,0%,0%);fill-opacity:1;" d="M 37.320312 12.613281 C 37.261719 12.765625 37.261719 13.199219 37.324219 13.316406 C 37.425781 13.519531 37.445312 13.457031 37.445312 12.980469 C 37.445312 12.628906 37.4375 12.519531 37.402344 12.519531 C 37.375 12.519531 37.339844 12.5625 37.320312 12.613281 Z M 37.320312 12.613281 "/>
<path style=" stroke:none;fill-rule:nonzero;fill:rgb(96.078432%,0%,0%);fill-opacity:1;" d="M 37.652344 12.648438 C 37.667969 12.726562 37.675781 12.933594 37.675781 13.113281 C 37.675781 13.425781 37.679688 13.441406 37.753906 13.441406 C 37.820312 13.441406 37.828125 13.429688 37.804688 13.308594 C 37.796875 13.234375 37.800781 13.078125 37.820312 12.964844 C 37.863281 12.691406 37.828125 12.539062 37.714844 12.527344 C 37.636719 12.511719 37.632812 12.523438 37.652344 12.648438 Z M 37.652344 12.648438 "/>
<path style=" stroke:none;fill-rule:nonzero;fill:rgb(96.078432%,0%,0%);fill-opacity:1;" d="M 38.796875 12.550781 C 38.765625 12.605469 38.757812 13.203125 38.785156 13.304688 C 38.8125 13.394531 38.910156 13.46875 38.945312 13.429688 C 38.957031 13.417969 38.941406 13.355469 38.921875 13.28125 C 38.894531 13.195312 38.882812 13.035156 38.894531 12.832031 C 38.90625 12.585938 38.902344 12.519531 38.863281 12.519531 C 38.839844 12.519531 38.8125 12.53125 38.796875 12.550781 Z M 38.796875 12.550781 "/>
<path style=" stroke:none;fill-rule:nonzero;fill:rgb(96.078432%,0%,0%);fill-opacity:1;" d="M 39.183594 12.5625 C 39.167969 12.585938 39.15625 12.796875 39.164062 13.027344 C 39.175781 13.402344 39.179688 13.445312 39.234375 13.4375 C 39.273438 13.429688 39.292969 13.398438 39.285156 13.34375 C 39.277344 13.300781 39.292969 13.148438 39.308594 13.003906 C 39.347656 12.75 39.328125 12.554688 39.253906 12.527344 C 39.234375 12.523438 39.203125 12.535156 39.183594 12.5625 Z M 39.183594 12.5625 "/>
<path style=" stroke:none;fill-rule:nonzero;fill:rgb(96.078432%,0%,0%);fill-opacity:1;" d="M 41.585938 12.609375 C 41.523438 12.777344 41.53125 13.199219 41.601562 13.328125 C 41.667969 13.464844 41.757812 13.464844 41.730469 13.332031 C 41.71875 13.285156 41.710938 13.082031 41.710938 12.882812 C 41.710938 12.605469 41.703125 12.519531 41.664062 12.519531 C 41.640625 12.519531 41.605469 12.5625 41.585938 12.609375 Z M 41.585938 12.609375 "/>
<path style=" stroke:none;fill-rule:nonzero;fill:rgb(96.078432%,0%,0%);fill-opacity:1;" d="M 41.9375 12.933594 C 41.949219 13.40625 41.957031 13.441406 42.027344 13.441406 C 42.066406 13.441406 42.082031 13.359375 42.09375 13.078125 C 42.109375 12.652344 42.089844 12.539062 41.992188 12.527344 C 41.921875 12.515625 41.921875 12.53125 41.9375 12.933594 Z M 41.9375 12.933594 "/>
<path style=" stroke:none;fill-rule:nonzero;fill:rgb(96.078432%,0%,0%);fill-opacity:1;" d="M 43.070312 12.539062 C 43.054688 12.554688 43.046875 12.617188 43.046875 12.683594 C 43.046875 12.746094 43.03125 12.839844 43.007812 12.890625 C 42.984375 12.957031 42.992188 13.039062 43.027344 13.175781 C 43.085938 13.414062 43.105469 13.441406 43.175781 13.441406 C 43.214844 13.441406 43.222656 13.425781 43.203125 13.378906 C 43.183594 13.347656 43.167969 13.144531 43.164062 12.929688 C 43.164062 12.574219 43.136719 12.472656 43.070312 12.539062 Z M 43.070312 12.539062 "/>
<path style=" stroke:none;fill-rule:nonzero;fill:rgb(96.078432%,0%,0%);fill-opacity:1;" d="M 26.539062 13.078125 C 26.527344 13.085938 26.515625 13.152344 26.515625 13.214844 C 26.515625 13.308594 26.542969 13.34375 26.640625 13.40625 C 26.734375 13.464844 26.792969 13.480469 26.863281 13.460938 L 26.960938 13.4375 L 26.855469 13.398438 C 26.703125 13.347656 26.625 13.269531 26.625 13.171875 C 26.625 13.085938 26.578125 13.039062 26.539062 13.078125 Z M 26.539062 13.078125 "/>
</g>
</svg>
