<?xml version="1.0" encoding="UTF-8"?>
<svg version="1.1" xmlns="http://www.w3.org/2000/svg" width="500" height="500">
<path d="M0 0 C2.33454811 0.00314531 4.6678061 -0.02032592 7.00219727 -0.0456543 C20.49661197 -0.10406744 33.44038566 1.5273255 46.10571289 6.44067383 C46.88575684 6.73490234 47.66580078 7.02913086 48.46948242 7.33227539 C58.70510723 11.32414843 68.27834353 16.64760723 77.66821289 22.31567383 C78.32821289 22.64567383 78.98821289 22.97567383 79.66821289 23.31567383 C80.43133789 24.12004883 81.19446289 24.92442383 81.98071289 25.75317383 C84.44125502 28.42050762 84.44125502 28.42050762 87.35571289 29.37817383 C90.29204214 30.56857758 90.30016646 31.54475797 91.66821289 34.31567383 C93.30669512 36.2676322 93.30669512 36.2676322 95.16821289 38.06567383 C95.77665039 38.67926758 96.38508789 39.29286133 97.01196289 39.92504883 C98.56305566 41.5300147 98.56305566 41.5300147 100.66821289 41.31567383 C100.75071289 41.93442383 100.83321289 42.55317383 100.91821289 43.19067383 C101.45632022 45.49914187 101.45632022 45.49914187 103.66821289 46.31567383 C105.66821289 47.31567383 105.66821289 47.31567383 106.41821289 49.44067383 C106.50071289 50.05942383 106.58321289 50.67817383 106.66821289 51.31567383 C107.32821289 51.31567383 107.98821289 51.31567383 108.66821289 51.31567383 C108.99821289 52.30567383 109.32821289 53.29567383 109.66821289 54.31567383 C110.28696289 54.93442383 110.90571289 55.55317383 111.54321289 56.19067383 C114.87253253 59.51999347 116.64028876 62.7634384 117.66821289 67.31567383 C117.99821289 67.97567383 118.32821289 68.63567383 118.66821289 69.31567383 C119.66821289 71.31567383 119.66821289 71.31567383 120.16821289 73.44067383 C120.56098354 75.54246866 120.56098354 75.54246866 122.66821289 77.31567383 C123.55951703 79.98958623 124.14552823 82.55291206 124.66821289 85.31567383 C125.32821289 85.31567383 125.98821289 85.31567383 126.66821289 85.31567383 C126.77133789 86.49129883 126.87446289 87.66692383 126.98071289 88.87817383 C127.45750864 93.25225653 128.27879479 97.50741931 129.16821289 101.81567383 C132.95198031 120.37566622 131.94165665 137.7633898 128.66821289 156.31567383 C128.46711914 157.50418945 128.26602539 158.69270508 128.05883789 159.91723633 C126.45303432 169.13844169 126.45303432 169.13844169 123.66821289 173.31567383 C121.90935617 176.97409582 120.73770501 179.57905741 120.35571289 183.62817383 C119.37693555 188.87797959 116.77802195 193.00978436 113.66821289 197.31567383 C113.00821289 197.64567383 112.34821289 197.97567383 111.66821289 198.31567383 C111.35883789 199.12004883 111.04946289 199.92442383 110.73071289 200.75317383 C109.66821289 203.31567383 109.66821289 203.31567383 106.66821289 205.31567383 C106.33821289 205.97567383 106.00821289 206.63567383 105.66821289 207.31567383 C105.17321289 207.79004883 104.67821289 208.26442383 104.16821289 208.75317383 C102.41737297 210.35340912 102.41737297 210.35340912 101.66821289 213.31567383 C101.09200195 213.6018457 100.51579102 213.88801758 99.92211914 214.18286133 C96.84243107 215.73071148 94.969795 217.94080497 92.60571289 220.44067383 C88.02588364 225.19782729 83.18296013 229.06029841 77.68774414 232.75708008 C76.68807617 233.52858398 76.68807617 233.52858398 75.66821289 234.31567383 C75.66821289 234.97567383 75.66821289 235.63567383 75.66821289 236.31567383 C74.9734082 236.40461914 74.27860352 236.49356445 73.56274414 236.58520508 C70.00806755 237.48226921 67.47534558 239.07860607 64.35571289 241.00317383 C37.62287413 256.80436848 2.64521828 260.79480564 -27.33178711 253.31567383 C-50.36258007 247.1810945 -70.20768581 235.72944204 -87.33178711 219.31567383 C-91.53837551 215.40103936 -91.53837551 215.40103936 -96.33178711 212.31567383 C-96.47616211 211.65567383 -96.62053711 210.99567383 -96.76928711 210.31567383 C-96.95491211 209.65567383 -97.14053711 208.99567383 -97.33178711 208.31567383 C-98.32178711 207.98567383 -99.31178711 207.65567383 -100.33178711 207.31567383 C-100.66178711 206.32567383 -100.99178711 205.33567383 -101.33178711 204.31567383 C-102.32178711 203.38754883 -102.32178711 203.38754883 -103.33178711 202.44067383 C-105.60239355 200.02815448 -105.97187286 198.55490208 -106.33178711 195.31567383 C-106.99178711 195.31567383 -107.65178711 195.31567383 -108.33178711 195.31567383 C-108.66178711 193.66567383 -108.99178711 192.01567383 -109.33178711 190.31567383 C-110.32178711 189.98567383 -111.31178711 189.65567383 -112.33178711 189.31567383 C-115.10561569 185.34510984 -116.94457749 181.21799685 -116.33178711 176.31567383 C-116.99178711 176.31567383 -117.65178711 176.31567383 -118.33178711 176.31567383 C-118.43491211 175.20192383 -118.53803711 174.08817383 -118.64428711 172.94067383 C-119.26098411 167.88013081 -120.75684859 163.1494474 -122.33178711 158.31567383 C-122.99178711 158.31567383 -123.65178711 158.31567383 -124.33178711 158.31567383 C-124.32018555 157.69821289 -124.30858398 157.08075195 -124.29663086 156.44458008 C-124.28760742 155.59766602 -124.27858398 154.75075195 -124.26928711 153.87817383 C-124.25768555 153.05446289 -124.24608398 152.23075195 -124.23413086 151.38208008 C-124.28976717 148.18330207 -124.28976717 148.18330207 -124.80053711 144.50317383 C-125.64911784 137.28760225 -125.69803691 130.00962522 -125.89428711 122.75317383 C-125.93757072 121.25251305 -125.98118781 119.75186186 -126.02514648 118.2512207 C-126.13120508 114.60614084 -126.23274967 110.96095201 -126.33178711 107.31567383 C-125.67178711 107.31567383 -125.01178711 107.31567383 -124.33178711 107.31567383 C-124.06624023 106.18129883 -123.80069336 105.04692383 -123.52709961 103.87817383 C-123.17035925 102.35733335 -122.81358669 100.83650042 -122.45678711 99.31567383 C-122.28276367 98.57188477 -122.10874023 97.8280957 -121.92944336 97.06176758 C-118.14467133 80.94144227 -118.14467133 80.94144227 -116.33178711 77.31567383 C-115.33660115 74.53150894 -115.33660115 74.53150894 -114.95288086 72.45239258 C-114.15866236 69.72008113 -112.86414092 67.56115923 -111.39428711 65.12817383 C-110.86963867 64.24774414 -110.34499023 63.36731445 -109.80444336 62.46020508 C-108.33178711 60.31567383 -108.33178711 60.31567383 -106.33178711 59.31567383 C-106.00178711 58.65567383 -105.67178711 57.99567383 -105.33178711 57.31567383 C-101.33178711 51.31567383 -101.33178711 51.31567383 -99.33178711 49.31567383 C-99.00178711 48.65567383 -98.67178711 47.99567383 -98.33178711 47.31567383 C-97.83678711 46.84129883 -97.34178711 46.36692383 -96.83178711 45.87817383 C-95.08094719 44.27793853 -95.08094719 44.27793853 -94.33178711 41.31567383 C-93.01070696 40.62504407 -91.67499017 39.9622245 -90.33178711 39.31567383 C-88.88903103 38.05493522 -87.49402052 36.73803657 -86.14428711 35.37817383 C-85.44948242 34.68852539 -84.75467773 33.99887695 -84.03881836 33.28833008 C-82.12439965 31.3296025 -82.12439965 31.3296025 -81.33178711 28.31567383 C-79.99845378 27.98234049 -78.66512044 27.64900716 -77.33178711 27.31567383 C-76.83678711 25.83067383 -76.83678711 25.83067383 -76.33178711 24.31567383 C-74.53491211 23.78051758 -74.53491211 23.78051758 -72.33178711 23.31567383 C-70.16571769 22.21554067 -70.16571769 22.21554067 -68.08178711 20.87817383 C-67.37538086 20.44633789 -66.66897461 20.01450195 -65.94116211 19.56958008 C-65.41006836 19.15579102 -64.87897461 18.74200195 -64.33178711 18.31567383 C-64.33178711 17.65567383 -64.33178711 16.99567383 -64.33178711 16.31567383 C-63.63698242 16.21383789 -62.94217773 16.11200195 -62.22631836 16.00708008 C-58.84126158 15.19850376 -56.10891692 13.8489167 -53.01928711 12.25317383 C-51.9506543 11.70532227 -50.88202148 11.1574707 -49.78100586 10.59301758 C-48.97276367 10.17149414 -48.16452148 9.7499707 -47.33178711 9.31567383 C-47.33178711 8.65567383 -47.33178711 7.99567383 -47.33178711 7.31567383 C-46.27991211 7.23317383 -45.22803711 7.15067383 -44.14428711 7.06567383 C-39.21138084 6.46431246 -34.66475966 4.93228302 -29.96850586 3.35083008 C-19.95086383 0.49940673 -10.34643448 -0.0290298 0 0 Z M-115.33178711 179.31567383 C-114.33178711 181.31567383 -114.33178711 181.31567383 -114.33178711 181.31567383 Z M115.66821289 188.31567383 C116.66821289 190.31567383 116.66821289 190.31567383 116.66821289 190.31567383 Z " fill="#FED235" transform="translate(237.331787109375,80.684326171875)"/>
<path d="M0 0 C1.9375 1.125 1.9375 1.125 3 3 C3.64053116 6.06031555 3.52222545 8.04770653 2.00390625 10.81640625 C-5.93533289 21.94933366 -16.66397 30.54656028 -28 38 C-28.66 38 -29.32 38 -30 38 C-30.17789063 39.38251953 -30.17789063 39.38251953 -30.359375 40.79296875 C-34.52671417 69.84048844 -40.65074383 100.08552641 -65 119 C-84.2629842 133.29787897 -106.04248065 142.37363153 -130.3125 142.4375 C-131.80765137 142.44221313 -131.80765137 142.44221313 -133.33300781 142.44702148 C-141.75732747 142.3112554 -148.33633365 140.58499729 -156 137 C-156.99 136.67 -157.98 136.34 -159 136 C-161.88583383 142.37288304 -162.96821612 148.00385769 -162 155 C-160.64122369 158.57236964 -158.71239218 161.28760782 -156 164 C-156 165.32 -156 166.64 -156 168 C-158.1875 168.375 -158.1875 168.375 -161 168 C-166.30104759 162.82516783 -169.11776187 157.24253025 -169.4375 149.75 C-169.313502 144.46914381 -167.90288207 140.15688494 -165.875 135.3125 C-164.82305395 132.94444105 -164.82305395 132.94444105 -165 130 C-166.17804541 128.3875124 -166.17804541 128.3875124 -167.75 126.8125 C-176.13268452 117.36472145 -178.69954533 105.36692135 -178.41015625 92.9609375 C-176.66885612 76.14495342 -168.26911443 60.31220601 -157 48 C-156.25105469 47.15824219 -155.50210938 46.31648438 -154.73046875 45.44921875 C-140.06408094 29.80993623 -116.77309929 16.38799317 -95.11791992 15.53173828 C-84.77827656 15.39315145 -76.28295798 17.04227008 -68.46875 24.28515625 C-63.5940528 29.97662452 -61.86465167 36.32981832 -61.9375 43.6875 C-61.94652344 44.86699219 -61.95554687 46.04648438 -61.96484375 47.26171875 C-61.97644531 48.16535156 -61.98804688 49.06898438 -62 50 C-50.66211527 45.01578944 -45.96619 39.88008891 -40.86035156 28.73876953 C-38.86240406 24.70091989 -35.96765686 21.35235311 -33 18 C-32.505 17.4121875 -32.01 16.824375 -31.5 16.21875 C-23.98008268 7.94684095 -11.46141452 -1.06124208 0 0 Z " fill="#E71C17" transform="translate(324,128)"/>
<path d="M0 0 C2.91824625 2.43377178 5.05977551 4.77667767 6.5625 8.3125 C7.1503125 9.611875 7.1503125 9.611875 7.75 10.9375 C9.20915508 16.99860573 9.38728015 22.88156904 7.375 28.8125 C5.35694523 31.59602382 3.70768147 32.94152346 0.5625 34.3125 C-0.0975 33.9825 -0.7575 33.6525 -1.4375 33.3125 C-1.375625 32.260625 -1.31375 31.20875 -1.25 30.125 C-1.4474723 26.10972982 -2.216744 24.55110249 -4.4375 21.3125 C-4.4375 20.6525 -4.4375 19.9925 -4.4375 19.3125 C-14.23671497 15.24764046 -22.88112104 15.03534338 -32.75 19.05859375 C-45.25372965 24.89245598 -55.97346314 33.53136323 -62.5625 45.8125 C-63.06007812 46.7303125 -63.55765625 47.648125 -64.0703125 48.59375 C-66.7794688 53.98110082 -67.75534046 58.13839266 -67.6875 64.1875 C-67.69523437 64.86941406 -67.70296875 65.55132812 -67.7109375 66.25390625 C-67.69303742 70.95267673 -66.90582452 74.8492596 -65.4375 79.3125 C-66.365625 80.17875 -67.29375 81.045 -68.25 81.9375 C-73.89921638 87.55184468 -78.59945706 94.00467186 -83.4375 100.3125 C-89.24532275 94.6792293 -89.55638439 88.22890373 -89.78149414 80.43652344 C-90.04391472 58.75686439 -80.5805879 41.32553062 -66.4375 25.3125 C-65.89996094 24.631875 -65.36242187 23.95125 -64.80859375 23.25 C-51.88509214 7.18469474 -20.76633287 -13.28635442 0 0 Z " fill="#FECE2F" transform="translate(248.4375,152.6875)"/>
<path d="M0 0 C1.22281942 3.66845827 0.65750264 4.56795312 -0.73828125 8.09375 C-1.14127441 9.11525146 -1.54426758 10.13675293 -1.95947266 11.18920898 C-2.62922119 12.82805054 -2.62922119 12.82805054 -3.3125 14.5 C-3.7667334 15.61898682 -4.2209668 16.73797363 -4.68896484 17.89086914 C-10.43953766 31.79750257 -16.59818594 45.90715634 -27 57 C-27.67772461 57.74491699 -27.67772461 57.74491699 -28.36914062 58.50488281 C-41.20716669 72.52912229 -57.22406755 85.02741316 -77 86 C-77.84949219 86.061875 -78.69898438 86.12375 -79.57421875 86.1875 C-88.48219207 86.58506645 -95.60921828 83.92718781 -103 79 C-98.95108635 70.29581365 -91.8363319 63.55729794 -85 57 C-84.44054687 57.3609375 -83.88109375 57.721875 -83.3046875 58.09375 C-75.04787661 62.87261161 -67.14569942 63.5460879 -57.89453125 61.21875 C-38.77211807 54.14573059 -25.11659133 37.19603006 -16.75 19.25 C-14.8552762 15.11419524 -14.8552762 15.11419524 -13.34765625 10.83203125 C-11.94445005 6.19223263 -9.35957524 4.79252105 -5.3125 2.5625 C-3.55171111 1.68781499 -1.78378445 0.82677955 0 0 Z " fill="#FECE2F" transform="translate(271,179)"/>
<path d="M0 0 C3.70390021 2.02666238 5.65363011 3.48044516 8 7 C8.60460086 10.3857648 9 13.56062308 9 17 C7.46557617 18.23583984 7.46557617 18.23583984 5.29296875 19.4609375 C4.48802979 19.92580566 3.68309082 20.39067383 2.85375977 20.86962891 C1.97389404 21.36640137 1.09402832 21.86317383 0.1875 22.375 C-14.07749005 30.67932136 -27.63422753 39.86755293 -40.53125 50.171875 C-43 52 -43 52 -46 53 C-46.54795938 41.67550608 -43.36132802 33.30180459 -37 24 C-36.44699219 23.18660156 -35.89398438 22.37320313 -35.32421875 21.53515625 C-31.45510942 16.29073183 -27.06097783 12.11492035 -22 8.0625 C-21.43087891 7.60174072 -20.86175781 7.14098145 -20.27539062 6.66625977 C-14.28928137 2.05808188 -7.72413491 -1.00127675 0 0 Z " fill="#FECE2F" transform="translate(235,173)"/>
<path d="M0 0 C0.495 0.99 0.495 0.99 1 2 C-6.81870914 21.48051261 -20.41889853 37.13324739 -39.4453125 46.16015625 C-42.55082136 47.18108042 -45.23363667 47.33684155 -48.5 47.375 C-49.6034375 47.40335938 -50.706875 47.43171875 -51.84375 47.4609375 C-55.6192475 46.90956534 -57.26142225 45.58529915 -60 43 C-59.15255122 38.20054308 -56.14886637 36.41154868 -52.375 33.6875 C-51.6727832 33.171875 -50.97056641 32.65625 -50.24707031 32.125 C-34.13879724 20.45776049 -17.14175639 10.06313566 0 0 Z " fill="#FECE2F" transform="translate(252,190)"/>
<path d="M0 0 C-1.83949604 10.18452685 -15.11274449 19.29236076 -23 25 C-23.66 24.67 -24.32 24.34 -25 24 C-20.01584499 14.65470935 -12.14562048 0 0 0 Z " fill="#FDC72E" transform="translate(321,134)"/>
<path d="M0 0 C11.88 0 23.76 0 36 0 C36 0.33 36 0.66 36 1 C24.12 1 12.24 1 0 1 C0 0.67 0 0.34 0 0 Z " fill="#FFFFFF" transform="translate(222,79)"/>
<path d="M0 0 C0.33 0 0.66 0 1 0 C1 7.26 1 14.52 1 22 C0.67 22 0.34 22 0 22 C0 14.74 0 7.48 0 0 Z " fill="#FFFFFF" transform="translate(110,197)"/>
<path d="M0 0 C6.93 0 13.86 0 21 0 C21 0.33 21 0.66 21 1 C14.07 1 7.14 1 0 1 C0 0.67 0 0.34 0 0 Z " fill="#FFFFFF" transform="translate(229,338)"/>
<path d="M0 0 C0.33 0 0.66 0 1 0 C1 5.94 1 11.88 1 18 C0.67 18 0.34 18 0 18 C0 12.06 0 6.12 0 0 Z " fill="#FFFFFF" transform="translate(370,199)"/>
<path d="M0 0 C0.33 0 0.66 0 1 0 C1 3.3 1 6.6 1 10 C0.67 10 0.34 10 0 10 C0 6.7 0 3.4 0 0 Z " fill="#FFFFFF" transform="translate(369,217)"/>
<path d="M0 0 C2.97 0 5.94 0 9 0 C9 0.33 9 0.66 9 1 C6.03 1 3.06 1 0 1 C0 0.67 0 0.34 0 0 Z " fill="#FFFFFF" transform="translate(251,337)"/>
<path d="M0 0 C0.33 0 0.66 0 1 0 C1 2.97 1 5.94 1 9 C0.67 9 0.34 9 0 9 C0 6.03 0 3.06 0 0 Z " fill="#FFFFFF" transform="translate(111,220)"/>
<path d="M0 0 C0.33 0 0.66 0 1 0 C1 2.97 1 5.94 1 9 C0.67 9 0.34 9 0 9 C0 6.03 0 3.06 0 0 Z " fill="#FFFFFF" transform="translate(369,190)"/>
<path d="M0 0 C2.64 0 5.28 0 8 0 C8 0.33 8 0.66 8 1 C5.36 1 2.72 1 0 1 C0 0.67 0 0.34 0 0 Z " fill="#FFFFFF" transform="translate(220,337)"/>
<path d="M0 0 C2.31 0 4.62 0 7 0 C7 0.33 7 0.66 7 1 C4.69 1 2.38 1 0 1 C0 0.67 0 0.34 0 0 Z " fill="#FFFFFF" transform="translate(258,80)"/>
<path d="M0 0 C2.31 0 4.62 0 7 0 C7 0.33 7 0.66 7 1 C4.69 1 2.38 1 0 1 C0 0.67 0 0.34 0 0 Z " fill="#FFFFFF" transform="translate(215,80)"/>
<path d="M0 0 C0.33 0 0.66 0 1 0 C1 1.98 1 3.96 1 6 C0.67 6 0.34 6 0 6 C0 4.02 0 2.04 0 0 Z " fill="#FFFFFF" transform="translate(368,227)"/>
<path d="M0 0 C0.33 0 0.66 0 1 0 C1 1.98 1 3.96 1 6 C0.67 6 0.34 6 0 6 C0 4.02 0 2.04 0 0 Z " fill="#FFFFFF" transform="translate(368,184)"/>
<path d="M0 0 C1.65 0 3.3 0 5 0 C5 0.33 5 0.66 5 1 C3.35 1 1.7 1 0 1 C0 0.67 0 0.34 0 0 Z " fill="#FFFFFF" transform="translate(261,336)"/>
<path d="M0 0 C1.65 0 3.3 0 5 0 C5 0.33 5 0.66 5 1 C3.35 1 1.7 1 0 1 C0 0.67 0 0.34 0 0 Z " fill="#FFFFFF" transform="translate(215,336)"/>
<path d="M0 0 C1.65 0 3.3 0 5 0 C5 0.33 5 0.66 5 1 C3.35 1 1.7 1 0 1 C0 0.67 0 0.34 0 0 Z " fill="#FFFFFF" transform="translate(210,335)"/>
<path d="M0 0 C0.33 0 0.66 0 1 0 C1 1.65 1 3.3 1 5 C0.67 5 0.34 5 0 5 C0 3.35 0 1.7 0 0 Z " fill="#FFFFFF" transform="translate(366,237)"/>
<path d="M0 0 C0.33 0 0.66 0 1 0 C1 1.65 1 3.3 1 5 C0.67 5 0.34 5 0 5 C0 3.35 0 1.7 0 0 Z " fill="#FFFFFF" transform="translate(112,229)"/>
<path d="M0 0 C0.33 0 0.66 0 1 0 C1 1.65 1 3.3 1 5 C0.67 5 0.34 5 0 5 C0 3.35 0 1.7 0 0 Z " fill="#FFFFFF" transform="translate(112,183)"/>
<path d="M0 0 C0.33 0 0.66 0 1 0 C1 1.65 1 3.3 1 5 C0.67 5 0.34 5 0 5 C0 3.35 0 1.7 0 0 Z " fill="#FFFFFF" transform="translate(113,178)"/>
<path d="M0 0 C4 1 4 1 4 1 Z " fill="#FFFFFF" transform="translate(266,335)"/>
<path d="M0 0 C4 1 4 1 4 1 Z " fill="#FFFFFF" transform="translate(274,333)"/>
<path d="M0 0 C4 1 4 1 4 1 Z " fill="#FFFFFF" transform="translate(280,331)"/>
<path d="M0 0 C1 4 1 4 1 4 Z " fill="#FFFFFF" transform="translate(367,233)"/>
<path d="M0 0 C1 4 1 4 1 4 Z " fill="#FFFFFF" transform="translate(367,180)"/>
<path d="M0 0 C1 4 1 4 1 4 Z " fill="#FFFFFF" transform="translate(366,176)"/>
<path d="M0 0 C1 4 1 4 1 4 Z " fill="#FFFFFF" transform="translate(114,174)"/>
<path d="M0 0 C4 1 4 1 4 1 Z " fill="#FFFFFF" transform="translate(270,82)"/>
<path d="M0 0 C4 1 4 1 4 1 Z " fill="#FFFFFF" transform="translate(207,82)"/>
<path d="M0 0 C4 1 4 1 4 1 Z " fill="#FFFFFF" transform="translate(266,81)"/>
<path d="M0 0 C4 1 4 1 4 1 Z " fill="#FFFFFF" transform="translate(211,81)"/>
<path d="M0 0 C3 1 3 1 3 1 Z " fill="#FFFFFF" transform="translate(271,334)"/>
<path d="M0 0 C3 1 3 1 3 1 Z " fill="#FFFFFF" transform="translate(203,333)"/>
<path d="M0 0 C3 1 3 1 3 1 Z " fill="#FFFFFF" transform="translate(200,332)"/>
<path d="M0 0 C3 1 3 1 3 1 Z " fill="#FFFFFF" transform="translate(197,331)"/>
<path d="M0 0 C3 1 3 1 3 1 Z " fill="#FFFFFF" transform="translate(286,329)"/>
<path d="M0 0 C3 1 3 1 3 1 Z " fill="#FFFFFF" transform="translate(192,329)"/>
<path d="M0 0 C3 1 3 1 3 1 Z " fill="#FFFFFF" transform="translate(291,327)"/>
<path d="M0 0 C3 1 3 1 3 1 Z " fill="#FFFFFF" transform="translate(187,327)"/>
<path d="" fill="#FFFFFF" transform="translate(0,0)"/>
<path d="" fill="#FFFFFF" transform="translate(0,0)"/>
<path d="" fill="#FFFFFF" transform="translate(0,0)"/>
<path d="" fill="#FFFFFF" transform="translate(0,0)"/>
<path d="" fill="#FFFFFF" transform="translate(0,0)"/>
<path d="" fill="#FFFFFF" transform="translate(0,0)"/>
<path d="" fill="#FFFFFF" transform="translate(0,0)"/>
<path d="" fill="#FFFFFF" transform="translate(0,0)"/>
<path d="" fill="#FFFFFF" transform="translate(0,0)"/>
<path d="" fill="#FFFFFF" transform="translate(0,0)"/>
<path d="" fill="#FFFFFF" transform="translate(0,0)"/>
<path d="" fill="#FFFFFF" transform="translate(0,0)"/>
<path d="" fill="#FFFFFF" transform="translate(0,0)"/>
<path d="" fill="#FFFFFF" transform="translate(0,0)"/>
<path d="M0 0 C3 1 3 1 3 1 Z " fill="#FFFFFF" transform="translate(288,88)"/>
<path d="M0 0 C3 1 3 1 3 1 Z " fill="#FFFFFF" transform="translate(283,86)"/>
<path d="M0 0 C3 1 3 1 3 1 Z " fill="#FFFFFF" transform="translate(195,86)"/>
<path d="M0 0 C3 1 3 1 3 1 Z " fill="#FFFFFF" transform="translate(280,85)"/>
<path d="M0 0 C3 1 3 1 3 1 Z " fill="#FFFFFF" transform="translate(277,84)"/>
<path d="M0 0 C3 1 3 1 3 1 Z " fill="#FFFFFF" transform="translate(201,84)"/>
<path d="M0 0 C3 1 3 1 3 1 Z " fill="#FFFFFF" transform="translate(274,83)"/>
<path d="M0 0 C2 1 2 1 2 1 Z " fill="#FFFFFF" transform="translate(207,334)"/>
<path d="M0 0 C2 1 2 1 2 1 Z " fill="#FFFFFF" transform="translate(278,332)"/>
<path d="M0 0 C2 1 2 1 2 1 Z " fill="#FFFFFF" transform="translate(284,330)"/>
<path d="M0 0 C2 1 2 1 2 1 Z " fill="#FFFFFF" transform="translate(195,330)"/>
<path d="M0 0 C2 1 2 1 2 1 Z " fill="#FFFFFF" transform="translate(289,328)"/>
<path d="M0 0 C2 1 2 1 2 1 Z " fill="#FFFFFF" transform="translate(190,328)"/>
<path d="M0 0 C2 1 2 1 2 1 Z " fill="#FFFFFF" transform="translate(185,326)"/>
<path d="M0 0 C2 1 2 1 2 1 Z " fill="#FFFFFF" transform="translate(296,325)"/>
<path d="M0 0 C2 1 2 1 2 1 Z " fill="#FFFFFF" transform="translate(183,325)"/>
<path d="M0 0 C2 1 2 1 2 1 Z " fill="#FFFFFF" transform="translate(303,321)"/>
<path d="M0 0 C2 1 2 1 2 1 Z " fill="#FFFFFF" transform="translate(176,321)"/>
<path d="M0 0 C2 1 2 1 2 1 Z " fill="#FFFFFF" transform="translate(305,320)"/>
<path d="M0 0 C2 1 2 1 2 1 Z " fill="#FFFFFF" transform="translate(174,320)"/>
<path d="M0 0 C2 1 2 1 2 1 Z " fill="#FFFFFF" transform="translate(172,319)"/>
<path d="M0 0 C2 1 2 1 2 1 Z " fill="#FFFFFF" transform="translate(308,318)"/>
<path d="M0 0 C2 1 2 1 2 1 Z " fill="#FFFFFF" transform="translate(169,317)"/>
<path d="M0 0 C2 1 2 1 2 1 Z " fill="#FFFFFF" transform="translate(317,312)"/>
<path d="M0 0 C2 1 2 1 2 1 Z " fill="#FFFFFF" transform="translate(322,308)"/>
<path d="" fill="#FFFFFF" transform="translate(0,0)"/>
<path d="" fill="#FFFFFF" transform="translate(0,0)"/>
<path d="" fill="#FFFFFF" transform="translate(0,0)"/>
<path d="" fill="#FFFFFF" transform="translate(0,0)"/>
<path d="" fill="#FFFFFF" transform="translate(0,0)"/>
<path d="" fill="#FFFFFF" transform="translate(0,0)"/>
<path d="" fill="#FFFFFF" transform="translate(0,0)"/>
<path d="" fill="#FFFFFF" transform="translate(0,0)"/>
<path d="" fill="#FFFFFF" transform="translate(0,0)"/>
<path d="" fill="#FFFFFF" transform="translate(0,0)"/>
<path d="" fill="#FFFFFF" transform="translate(0,0)"/>
<path d="" fill="#FFFFFF" transform="translate(0,0)"/>
<path d="" fill="#FFFFFF" transform="translate(0,0)"/>
<path d="" fill="#FFFFFF" transform="translate(0,0)"/>
<path d="M0 0 C2 1 2 1 2 1 Z " fill="#FFFFFF" transform="translate(165,102)"/>
<path d="M0 0 C2 1 2 1 2 1 Z " fill="#FFFFFF" transform="translate(311,100)"/>
<path d="M0 0 C2 1 2 1 2 1 Z " fill="#FFFFFF" transform="translate(168,100)"/>
<path d="M0 0 C2 1 2 1 2 1 Z " fill="#FFFFFF" transform="translate(171,98)"/>
<path d="M0 0 C2 1 2 1 2 1 Z " fill="#FFFFFF" transform="translate(306,97)"/>
<path d="M0 0 C2 1 2 1 2 1 Z " fill="#FFFFFF" transform="translate(304,96)"/>
<path d="M0 0 C2 1 2 1 2 1 Z " fill="#FFFFFF" transform="translate(301,94)"/>
<path d="M0 0 C2 1 2 1 2 1 Z " fill="#FFFFFF" transform="translate(178,94)"/>
<path d="M0 0 C2 1 2 1 2 1 Z " fill="#FFFFFF" transform="translate(299,93)"/>
<path d="M0 0 C2 1 2 1 2 1 Z " fill="#FFFFFF" transform="translate(180,93)"/>
<path d="M0 0 C2 1 2 1 2 1 Z " fill="#FFFFFF" transform="translate(297,92)"/>
<path d="M0 0 C2 1 2 1 2 1 Z " fill="#FFFFFF" transform="translate(182,92)"/>
<path d="M0 0 C2 1 2 1 2 1 Z " fill="#FFFFFF" transform="translate(295,91)"/>
<path d="M0 0 C2 1 2 1 2 1 Z " fill="#FFFFFF" transform="translate(184,91)"/>
<path d="M0 0 C2 1 2 1 2 1 Z " fill="#FFFFFF" transform="translate(293,90)"/>
<path d="M0 0 C2 1 2 1 2 1 Z " fill="#FFFFFF" transform="translate(186,90)"/>
<path d="M0 0 C2 1 2 1 2 1 Z " fill="#FFFFFF" transform="translate(291,89)"/>
<path d="M0 0 C2 1 2 1 2 1 Z " fill="#FFFFFF" transform="translate(188,89)"/>
<path d="M0 0 C2 1 2 1 2 1 Z " fill="#FFFFFF" transform="translate(286,87)"/>
<path d="M0 0 C2 1 2 1 2 1 Z " fill="#FFFFFF" transform="translate(193,87)"/>
<path d="M0 0 C2 1 2 1 2 1 Z " fill="#FFFFFF" transform="translate(198,85)"/>
<path d="M0 0 C2 1 2 1 2 1 Z " fill="#FFFFFF" transform="translate(204,83)"/>
<path d="" fill="#FFFFFF" transform="translate(0,0)"/>
<path d="" fill="#FFFFFF" transform="translate(0,0)"/>
<path d="" fill="#FFFFFF" transform="translate(0,0)"/>
<path d="" fill="#FFFFFF" transform="translate(0,0)"/>
<path d="" fill="#FFFFFF" transform="translate(0,0)"/>
<path d="" fill="#FFFFFF" transform="translate(0,0)"/>
<path d="" fill="#FFFFFF" transform="translate(0,0)"/>
<path d="" fill="#FFFFFF" transform="translate(0,0)"/>
<path d="" fill="#FFFFFF" transform="translate(0,0)"/>
<path d="" fill="#FFFFFF" transform="translate(0,0)"/>
<path d="" fill="#FFFFFF" transform="translate(0,0)"/>
<path d="" fill="#FFFFFF" transform="translate(0,0)"/>
<path d="" fill="#FFFFFF" transform="translate(0,0)"/>
<path d="" fill="#FFFFFF" transform="translate(0,0)"/>
<path d="" fill="#FFFFFF" transform="translate(0,0)"/>
<path d="" fill="#FFFFFF" transform="translate(0,0)"/>
<path d="" fill="#FFFFFF" transform="translate(0,0)"/>
<path d="" fill="#FFFFFF" transform="translate(0,0)"/>
<path d="" fill="#FFFFFF" transform="translate(0,0)"/>
<path d="" fill="#FFFFFF" transform="translate(0,0)"/>
<path d="" fill="#FFFFFF" transform="translate(0,0)"/>
<path d="" fill="#FFFFFF" transform="translate(0,0)"/>
<path d="" fill="#FFFFFF" transform="translate(0,0)"/>
<path d="" fill="#FFFFFF" transform="translate(0,0)"/>
<path d="" fill="#FFFFFF" transform="translate(0,0)"/>
<path d="" fill="#FFFFFF" transform="translate(0,0)"/>
<path d="" fill="#FFFFFF" transform="translate(0,0)"/>
<path d="" fill="#FFFFFF" transform="translate(0,0)"/>
<path d="" fill="#FFFFFF" transform="translate(0,0)"/>
<path d="" fill="#FFFFFF" transform="translate(0,0)"/>
<path d="" fill="#FFFFFF" transform="translate(0,0)"/>
<path d="" fill="#FFFFFF" transform="translate(0,0)"/>
<path d="" fill="#FFFFFF" transform="translate(0,0)"/>
<path d="" fill="#FFFFFF" transform="translate(0,0)"/>
<path d="" fill="#FFFFFF" transform="translate(0,0)"/>
<path d="" fill="#FFFFFF" transform="translate(0,0)"/>
<path d="" fill="#FFFFFF" transform="translate(0,0)"/>
<path d="" fill="#FFFFFF" transform="translate(0,0)"/>
<path d="" fill="#FFFFFF" transform="translate(0,0)"/>
<path d="" fill="#FFFFFF" transform="translate(0,0)"/>
<path d="" fill="#FFFFFF" transform="translate(0,0)"/>
<path d="" fill="#FFFFFF" transform="translate(0,0)"/>
<path d="" fill="#FFFFFF" transform="translate(0,0)"/>
<path d="" fill="#FFFFFF" transform="translate(0,0)"/>
<path d="" fill="#FFFFFF" transform="translate(0,0)"/>
<path d="" fill="#FFFFFF" transform="translate(0,0)"/>
<path d="" fill="#FFFFFF" transform="translate(0,0)"/>
<path d="" fill="#FFFFFF" transform="translate(0,0)"/>
<path d="" fill="#FFFFFF" transform="translate(0,0)"/>
<path d="" fill="#FFFFFF" transform="translate(0,0)"/>
<path d="" fill="#FFFFFF" transform="translate(0,0)"/>
<path d="" fill="#FFFFFF" transform="translate(0,0)"/>
<path d="" fill="#FFFFFF" transform="translate(0,0)"/>
<path d="" fill="#FFFFFF" transform="translate(0,0)"/>
<path d="" fill="#FFFFFF" transform="translate(0,0)"/>
<path d="" fill="#FFFFFF" transform="translate(0,0)"/>
<path d="" fill="#FFFFFF" transform="translate(0,0)"/>
<path d="" fill="#FFFFFF" transform="translate(0,0)"/>
<path d="" fill="#FFFFFF" transform="translate(0,0)"/>
<path d="" fill="#FFFFFF" transform="translate(0,0)"/>
<path d="" fill="#FFFFFF" transform="translate(0,0)"/>
<path d="" fill="#FFFFFF" transform="translate(0,0)"/>
<path d="" fill="#FFFFFF" transform="translate(0,0)"/>
<path d="" fill="#FFFFFF" transform="translate(0,0)"/>
<path d="" fill="#FFFFFF" transform="translate(0,0)"/>
<path d="" fill="#FFFFFF" transform="translate(0,0)"/>
<path d="" fill="#FFFFFF" transform="translate(0,0)"/>
<path d="" fill="#FFFFFF" transform="translate(0,0)"/>
<path d="" fill="#FFFFFF" transform="translate(0,0)"/>
<path d="" fill="#FFFFFF" transform="translate(0,0)"/>
<path d="" fill="#FFFFFF" transform="translate(0,0)"/>
<path d="" fill="#FFFFFF" transform="translate(0,0)"/>
<path d="" fill="#FFFFFF" transform="translate(0,0)"/>
<path d="" fill="#FFFFFF" transform="translate(0,0)"/>
<path d="" fill="#FFFFFF" transform="translate(0,0)"/>
<path d="" fill="#FFFFFF" transform="translate(0,0)"/>
<path d="" fill="#FFFFFF" transform="translate(0,0)"/>
<path d="" fill="#FFFFFF" transform="translate(0,0)"/>
<path d="" fill="#FFFFFF" transform="translate(0,0)"/>
<path d="" fill="#FFFFFF" transform="translate(0,0)"/>
<path d="" fill="#FFFFFF" transform="translate(0,0)"/>
<path d="" fill="#FFFFFF" transform="translate(0,0)"/>
<path d="" fill="#FFFFFF" transform="translate(0,0)"/>
<path d="" fill="#FFFFFF" transform="translate(0,0)"/>
<path d="" fill="#FFFFFF" transform="translate(0,0)"/>
<path d="" fill="#FFFFFF" transform="translate(0,0)"/>
<path d="" fill="#FFFFFF" transform="translate(0,0)"/>
<path d="" fill="#FFFFFF" transform="translate(0,0)"/>
<path d="" fill="#FFFFFF" transform="translate(0,0)"/>
<path d="" fill="#FFFFFF" transform="translate(0,0)"/>
<path d="" fill="#FFFFFF" transform="translate(0,0)"/>
<path d="" fill="#FFFFFF" transform="translate(0,0)"/>
<path d="" fill="#FFFFFF" transform="translate(0,0)"/>
<path d="" fill="#FFFFFF" transform="translate(0,0)"/>
<path d="" fill="#FFFFFF" transform="translate(0,0)"/>
<path d="" fill="#FFFFFF" transform="translate(0,0)"/>
<path d="" fill="#FFFFFF" transform="translate(0,0)"/>
<path d="" fill="#FFFFFF" transform="translate(0,0)"/>
<path d="" fill="#FFFFFF" transform="translate(0,0)"/>
<path d="" fill="#FFFFFF" transform="translate(0,0)"/>
<path d="" fill="#FFFFFF" transform="translate(0,0)"/>
<path d="" fill="#FFFFFF" transform="translate(0,0)"/>
<path d="" fill="#FFFFFF" transform="translate(0,0)"/>
<path d="" fill="#FFFFFF" transform="translate(0,0)"/>
<path d="" fill="#FFFFFF" transform="translate(0,0)"/>
<path d="" fill="#FFFFFF" transform="translate(0,0)"/>
<path d="" fill="#FFFFFF" transform="translate(0,0)"/>
<path d="" fill="#FFFFFF" transform="translate(0,0)"/>
<path d="" fill="#FFFFFF" transform="translate(0,0)"/>
<path d="" fill="#FFFFFF" transform="translate(0,0)"/>
<path d="" fill="#FFFFFF" transform="translate(0,0)"/>
<path d="" fill="#FFFFFF" transform="translate(0,0)"/>
<path d="" fill="#FFFFFF" transform="translate(0,0)"/>
<path d="" fill="#FFFFFF" transform="translate(0,0)"/>
<path d="" fill="#FFFFFF" transform="translate(0,0)"/>
<path d="" fill="#FFFFFF" transform="translate(0,0)"/>
<path d="" fill="#FFFFFF" transform="translate(0,0)"/>
<path d="" fill="#FFFFFF" transform="translate(0,0)"/>
<path d="" fill="#FFFFFF" transform="translate(0,0)"/>
</svg>
